<?xml version="1.0" encoding="UTF-8"?>
<svg id="Layer_1" xmlns="http://www.w3.org/2000/svg" xmlns:xlink="http://www.w3.org/1999/xlink" version="1.1" viewBox="0 0 718 320.8">
  <!-- Generator: Adobe Illustrator 29.3.1, SVG Export Plug-In . SVG Version: 2.1.0 Build 151)  -->
  <defs>
    <style>
      .st0, .st1, .st2, .st3, .st4, .st5, .st6 {
        fill: none;
      }

      .st7 {
        fill: url(#New_Gradient_Swatch_115);
      }

      .st8 {
        fill: url(#New_Gradient_Swatch_116);
      }

      .st9 {
        fill: url(#New_Gradient_Swatch_113);
      }

      .st10 {
        fill: url(#New_Gradient_Swatch_111);
      }

      .st11 {
        fill: url(#New_Gradient_Swatch_112);
      }

      .st12 {
        fill: url(#New_Gradient_Swatch_110);
      }

      .st13 {
        fill: url(#New_Gradient_Swatch_114);
      }

      .st14 {
        opacity: .5;
      }

      .st14, .st15 {
        fill: #183966;
      }

      .st1 {
        stroke-width: .5px;
      }

      .st1, .st2, .st3, .st4, .st5, .st6 {
        stroke-miterlimit: 10;
      }

      .st1, .st2, .st5 {
        stroke: #e2e2e2;
      }

      .st2, .st5 {
        stroke-width: .5px;
      }

      .st16 {
        fill: url(#linear-gradient1);
      }

      .st17 {
        fill: #4e171c;
      }

      .st18 {
        fill: #595a5a;
      }

      .st19 {
        fill: #203760;
      }

      .st20 {
        fill: #231f20;
      }

      .st21 {
        fill: #8e8e8e;
      }

      .st3 {
        stroke: #028644;
        stroke-width: 0px;
      }

      .st22 {
        fill: #fdca9d;
      }

      .st23 {
        fill: #49110e;
      }

      .st24 {
        fill: url(#linear-gradient);
      }

      .st25 {
        fill-rule: evenodd;
      }

      .st25, .st26 {
        fill: #091035;
      }

      .st27 {
        fill: #2f54a5;
      }

      .st28 {
        fill: #8d8d8e;
      }

      .st29 {
        fill: #010001;
      }

      .st30 {
        fill: #252d65;
      }

      .st31 {
        fill: #f8bf14;
      }

      .st32 {
        fill: #636364;
      }

      .st33 {
        fill: #787677;
      }

      .st34 {
        fill: #0d0d0d;
      }

      .st35 {
        clip-path: url(#clippath-1);
      }

      .st36 {
        clip-path: url(#clippath-3);
      }

      .st37 {
        clip-path: url(#clippath-4);
      }

      .st38 {
        clip-path: url(#clippath-2);
      }

      .st39 {
        clip-path: url(#clippath-7);
      }

      .st40 {
        clip-path: url(#clippath-6);
      }

      .st41 {
        clip-path: url(#clippath-9);
      }

      .st42 {
        clip-path: url(#clippath-8);
      }

      .st43 {
        clip-path: url(#clippath-5);
      }

      .st44 {
        fill: url(#New_Gradient_Swatch_45);
      }

      .st45 {
        fill: url(#New_Gradient_Swatch_47);
      }

      .st46 {
        fill: url(#New_Gradient_Swatch_42);
      }

      .st47 {
        fill: url(#New_Gradient_Swatch_44);
      }

      .st48 {
        fill: url(#New_Gradient_Swatch_41);
      }

      .st49 {
        fill: url(#New_Gradient_Swatch_46);
      }

      .st50 {
        fill: url(#New_Gradient_Swatch_43);
      }

      .st51 {
        fill: url(#New_Gradient_Swatch_15);
      }

      .st52 {
        fill: url(#New_Gradient_Swatch_13);
      }

      .st53 {
        fill: url(#New_Gradient_Swatch_11);
      }

      .st54 {
        fill: url(#New_Gradient_Swatch_14);
      }

      .st55 {
        fill: url(#New_Gradient_Swatch_12);
      }

      .st56 {
        fill: url(#New_Gradient_Swatch_17);
      }

      .st57 {
        fill: url(#New_Gradient_Swatch_18);
      }

      .st58 {
        fill: url(#New_Gradient_Swatch_19);
      }

      .st59 {
        fill: url(#New_Gradient_Swatch_16);
      }

      .st60 {
        fill: #4a4849;
      }

      .st61 {
        fill: #143356;
      }

      .st62 {
        fill: #59a445;
      }

      .st63 {
        fill: #fff;
      }

      .st64 {
        fill: #2d53a5;
      }

      .st65 {
        fill: #a3a3a3;
      }

      .st66 {
        fill: #3055a5;
      }

      .st67 {
        fill: #5b171a;
      }

      .st68 {
        fill: url(#New_Gradient_Swatch_4);
      }

      .st69 {
        fill: url(#New_Gradient_Swatch_1);
      }

      .st70 {
        fill: #80666a;
      }

      .st4 {
        stroke-width: 2px;
      }

      .st4, .st6 {
        stroke: #000;
      }

      .st71 {
        fill: #66191a;
      }

      .st72 {
        fill: #9b9a9a;
      }

      .st73 {
        fill: #5488c7;
      }

      .st74 {
        fill: #e2e2e2;
      }

      .st5 {
        stroke-linecap: round;
      }

      .st75 {
        fill: #028644;
      }

      .st76 {
        fill: #1d4a7d;
      }

      .st77 {
        clip-path: url(#clippath);
      }

      .st78 {
        fill: #d5d6d6;
      }

      .st6 {
        stroke-width: 2.5px;
      }
    </style>
    <linearGradient id="linear-gradient" x1="241.4" y1="216.6" x2="241.4" y2="183.6" gradientUnits="userSpaceOnUse">
      <stop offset="0" stop-color="#fff"/>
      <stop offset=".1" stop-color="#fadecf"/>
      <stop offset=".3" stop-color="#f5ba9b"/>
      <stop offset=".5" stop-color="#f09c70"/>
      <stop offset=".6" stop-color="#ed854f"/>
      <stop offset=".8" stop-color="#ea7537"/>
      <stop offset=".9" stop-color="#e96b28"/>
      <stop offset="1" stop-color="#e96824"/>
    </linearGradient>
    <clipPath id="clippath">
      <polygon class="st24" points="252.2 183.6 252.2 216.6 244.4 216.6 244.4 203.8 238.5 203.8 238.5 216.6 230.6 216.6 230.6 183.6 238.5 183.6 238.5 195.7 244.4 195.7 244.4 183.6 252.2 183.6"/>
    </clipPath>
    <linearGradient id="linear-gradient1" x1="241.4" y1="216.6" x2="241.4" y2="183.6" gradientUnits="userSpaceOnUse">
      <stop offset="0" stop-color="#dbc253"/>
      <stop offset="0" stop-color="#ddb44b"/>
      <stop offset=".3" stop-color="#e2933a"/>
      <stop offset=".6" stop-color="#e57b2e"/>
      <stop offset=".8" stop-color="#e86c26"/>
      <stop offset="1" stop-color="#e96824"/>
    </linearGradient>
    <linearGradient id="New_Gradient_Swatch_1" data-name="New Gradient Swatch 1" x1="267.9" y1="216.6" x2="267.9" y2="183.6" gradientUnits="userSpaceOnUse">
      <stop offset="0" stop-color="#dbc253"/>
      <stop offset="0" stop-color="#ddb44b"/>
      <stop offset=".3" stop-color="#e2933a"/>
      <stop offset=".6" stop-color="#e57b2e"/>
      <stop offset=".8" stop-color="#e86c26"/>
      <stop offset="1" stop-color="#e96824"/>
    </linearGradient>
    <clipPath id="clippath-1">
      <polygon class="st69" points="277.4 208.7 277.4 216.6 258.3 216.6 258.3 183.6 277.4 183.6 277.4 191.2 266 191.2 266 196 275.2 196 275.2 203.3 266 203.3 266 208.7 277.4 208.7"/>
    </clipPath>
    <linearGradient id="New_Gradient_Swatch_11" data-name="New Gradient Swatch 1" x1="292.2" x2="292.2" xlink:href="#New_Gradient_Swatch_1"/>
    <linearGradient id="New_Gradient_Swatch_12" data-name="New Gradient Swatch 1" x1="292.2" x2="292.2" xlink:href="#New_Gradient_Swatch_1"/>
    <clipPath id="clippath-2">
      <path class="st55" d="M289.4,202.9h4.1l-2-9.6-2,9.6ZM296.3,216.6l-1.4-6.5h-6.9l-1.5,6.5h-6.3l7.9-33h8.2l8,33h-8Z"/>
    </clipPath>
    <linearGradient id="New_Gradient_Swatch_13" data-name="New Gradient Swatch 1" x1="292.2" x2="292.2" xlink:href="#New_Gradient_Swatch_1"/>
    <linearGradient id="New_Gradient_Swatch_14" data-name="New Gradient Swatch 1" x1="313.5" x2="313.5" xlink:href="#New_Gradient_Swatch_1"/>
    <linearGradient id="New_Gradient_Swatch_15" data-name="New Gradient Swatch 1" x1="313.5" x2="313.5" xlink:href="#New_Gradient_Swatch_1"/>
    <clipPath id="clippath-3">
      <polygon class="st51" points="317.2 191.5 317.2 216.6 309.8 216.6 309.8 191.5 304.6 191.5 304.6 183.6 322.5 183.6 322.5 191.5 317.2 191.5"/>
    </clipPath>
    <linearGradient id="New_Gradient_Swatch_16" data-name="New Gradient Swatch 1" x1="313.5" x2="313.5" xlink:href="#New_Gradient_Swatch_1"/>
    <linearGradient id="New_Gradient_Swatch_17" data-name="New Gradient Swatch 1" x1="330.3" x2="330.3" xlink:href="#New_Gradient_Swatch_1"/>
    <linearGradient id="New_Gradient_Swatch_18" data-name="New Gradient Swatch 1" x1="330.3" x2="330.3" xlink:href="#New_Gradient_Swatch_1"/>
    <clipPath id="clippath-4">
      <rect class="st57" x="326.4" y="183.6" width="7.8" height="33"/>
    </clipPath>
    <linearGradient id="New_Gradient_Swatch_19" data-name="New Gradient Swatch 1" x1="330.3" x2="330.3" xlink:href="#New_Gradient_Swatch_1"/>
    <linearGradient id="New_Gradient_Swatch_110" data-name="New Gradient Swatch 1" x1="351.2" x2="351.2" xlink:href="#New_Gradient_Swatch_1"/>
    <linearGradient id="New_Gradient_Swatch_111" data-name="New Gradient Swatch 1" x1="351.2" x2="351.2" xlink:href="#New_Gradient_Swatch_1"/>
    <clipPath id="clippath-5">
      <path class="st10" d="M362.1,216.6h-6.4l-7-14.6c-.9-1.9-1.8-4.2-2.7-6.9.4,2.1.6,3.9.6,5.4v16h-6.3v-33h7.4l5.9,12.1c1.2,2.4,2.1,4.5,2.7,6.3-.4-2.8-.6-5.7-.6-8.7v-9.8h6.4v33Z"/>
    </clipPath>
    <linearGradient id="New_Gradient_Swatch_112" data-name="New Gradient Swatch 1" x1="351.2" x2="351.2" xlink:href="#New_Gradient_Swatch_1"/>
    <linearGradient id="New_Gradient_Swatch_113" data-name="New Gradient Swatch 1" x1="378.6" y1="217.1" x2="378.6" y2="183.1" xlink:href="#New_Gradient_Swatch_1"/>
    <linearGradient id="New_Gradient_Swatch_114" data-name="New Gradient Swatch 1" x1="378.6" y1="217.1" x2="378.6" y2="183.1" xlink:href="#New_Gradient_Swatch_1"/>
    <clipPath id="clippath-6">
      <path class="st13" d="M390.1,198.1v18.5h-3.8c-.3-1.4-.6-2.5-1-3.5-1.6,2.6-3.9,4-7,4s-6-1.5-8.1-4.5c-2.1-3-3.2-7-3.2-12.1s1-9.1,3.1-12.4c2-3.4,5.1-5,9.1-5s5.5,1,7.3,3c1.8,2,3,4.8,3.6,8.5l-7.5,1c-.4-3.4-1.5-5.2-3.5-5.2s-3.9,3.2-3.9,9.5.4,6.3,1.2,7.6c.8,1.2,1.8,1.8,3,1.8s1.8-.4,2.4-1.1c.7-.7,1-1.8,1-3h-4.2v-7h11.5Z"/>
    </clipPath>
    <linearGradient id="New_Gradient_Swatch_115" data-name="New Gradient Swatch 1" x1="378.6" y1="217.1" x2="378.6" y2="183.1" xlink:href="#New_Gradient_Swatch_1"/>
    <linearGradient id="New_Gradient_Swatch_116" data-name="New Gradient Swatch 1" x1="396.5" y1="202" x2="438.7" y2="202" xlink:href="#New_Gradient_Swatch_1"/>
    <radialGradient id="New_Gradient_Swatch_4" data-name="New Gradient Swatch 4" cx="457.5" cy="202" fx="457.5" fy="202" r="32.2" gradientUnits="userSpaceOnUse">
      <stop offset="0" stop-color="#fff"/>
      <stop offset=".3" stop-color="#cbdbee"/>
      <stop offset=".6" stop-color="#8aaed9"/>
      <stop offset=".9" stop-color="#6292cc"/>
      <stop offset="1" stop-color="#5388c7"/>
    </radialGradient>
    <radialGradient id="New_Gradient_Swatch_41" data-name="New Gradient Swatch 4" cx="500.5" cy="198.9" fx="500.5" fy="198.9" r="15.2" xlink:href="#New_Gradient_Swatch_4"/>
    <radialGradient id="New_Gradient_Swatch_42" data-name="New Gradient Swatch 4" cx="527.7" cy="198.9" fx="527.7" fy="198.9" r="15.4" xlink:href="#New_Gradient_Swatch_4"/>
    <radialGradient id="New_Gradient_Swatch_43" data-name="New Gradient Swatch 4" cx="555.6" cy="198.9" fx="555.6" fy="198.9" r="15.4" xlink:href="#New_Gradient_Swatch_4"/>
    <radialGradient id="New_Gradient_Swatch_44" data-name="New Gradient Swatch 4" cx="581.6" cy="198.9" fx="581.6" fy="198.9" r="13.8" xlink:href="#New_Gradient_Swatch_4"/>
    <radialGradient id="New_Gradient_Swatch_45" data-name="New Gradient Swatch 4" cx="597.2" cy="198.9" fx="597.2" fy="198.9" r="12.3" xlink:href="#New_Gradient_Swatch_4"/>
    <radialGradient id="New_Gradient_Swatch_46" data-name="New Gradient Swatch 4" cx="617.3" cy="198.9" fx="617.3" fy="198.9" r="14.5" xlink:href="#New_Gradient_Swatch_4"/>
    <radialGradient id="New_Gradient_Swatch_47" data-name="New Gradient Swatch 4" cx="644.7" cy="198.9" fx="644.7" fy="198.9" r="15.2" xlink:href="#New_Gradient_Swatch_4"/>
    <clipPath id="clippath-7">
      <rect class="st0" x="290.2" y="248.6" width="40.4" height="43.5"/>
    </clipPath>
    <clipPath id="clippath-8">
      <rect class="st0" x="290.2" y="248.6" width="40.4" height="43.5"/>
    </clipPath>
    <clipPath id="clippath-9">
      <rect class="st0" x="290.2" y="248.6" width="40.4" height="43.5"/>
    </clipPath>
  </defs>
  <g>
    <path class="st64" d="M67.4,34.5c-1.6.8-3.4,1.6-5.1,2.3h-.1c-.7-.6-.4-1.6-.2-2.4.4-1,.9-2.2,1.9-2.5.7-.2,1.5,0,2.1.3.8.4,1.7,1.3,1.4,2.3Z"/>
    <path class="st20" d="M182.1,145c1.6-.5-1.4-6.2-2-7.2-1.5-2.4-3.4-4.7-5.4-6.6-1.5-1.5-3.5-3.6-5.8-3.8-5.2-.4,1.6,8.8,2.7,10.1,2.1,2.5,4.7,4.7,7.5,6.5.8.5,1.7.9,2.6,1,.2,0,.3,0,.4,0ZM181.4,153.7c.3-1.9.8-3.8,1.2-5.7.2-1-1-1.1-1.7-1.2-1.1-.2-2-.7-3-1.3-3.3-2.1-6.2-5.2-8.6-8.3-1-1.2-1.8-2.5-2.6-3.8-.3-.5-1.4-3.2-2.2-2.9-1,.4-2.4,2-3.1,2.8-1,1.1-1.9,2.3-2.2,3.8-1,5.2,4.2,10.8,7.4,14.3,1.9,2,4,3.9,6.2,5.6,2,1.5,3.9,3.4,6.3,4.2.3,0,.6.1.8,0,.3,0,.6-.2.8-.5.2-.3.2-.7.3-1.1.2-2,.1-3.9.5-5.9ZM155.1,155.7c.5,4.1,1.8,8.2,4.1,11.6,1.4,2.1,3.4,3.4,5.9,3.8,1.2.2,2.4.3,3.5.1,1.3-.2,2.6-.6,3.9-1,.9-.3,2.2-.5,3-1.1.8-.6-.5-1.5-1-1.8-3.7-2.4-7.2-5.3-10.1-8.7-3.1-3.7-6-7.7-7.7-12.2-.1-.3-.3-1.2-.6-1.4-.7-.4-1,3.9-1.1,4.4-.1,2.1,0,4.2.2,6.2ZM156.4,140.8c3.2,10.2,10,20.1,19.4,25.4.6.3,1.2.5,1.8.6,2.5.4,5-1.1,5.3-4,0-.5,0-1.1,0-1.6,0-.2-.4-1-.4-1.2-.2.8-.4,1.6-.6,2.4-.5,1.7-2,1.3-3.2.7-1.7-.9-3.1-2.1-4.6-3.3-1.5-1.1-3.2-2.1-4.6-3.3-2.1-1.8-3.8-3.8-5.7-5.8-2.8-3-5-6.3-5.9-10.4-.3-1.4-.5-3-.3-4.4.2-1.2,1-1.5,1.7-2.4,0-.1.2-.2.2-.4,0-.4-.4-.6-.8-.7-1.1-.2-2.1.6-2.7,1.4-1.4,2-.3,4.9.4,6.9ZM157,171.1c.6.2,1.9.4,2.1-.5.2-.8-.9-1.5-1.4-2.1-.8-1-.6-2.5-1.6-3.4,0,0-.2-.2-.3-.2-1-.1-1,2.3-.9,2.9,0,1.3.6,2.8,2,3.3,0,0,0,0,0,0ZM29.3,204.2c0,0,1,.7,1,.7.7-1.2,1.6-4,.7-5-.7-.8-5.7-1.3-4.9.6.6,1.4,2.2,2.7,3.2,3.7ZM44.4,190.4c.6-.2-2.6-4.2-2.9-4.5-1.3-1.5-2.8-2.8-4.4-4-1.3-1-2.7-1.9-4.2-2.6-.4-.2-4.8-1.8-5-1-.2.7.3,1.5.4,2.2.1.9,0,1.7,0,2.6,0,1.4-.6,2.7,1.1,3,2,.4,4,.2,6,.4,1.7.2,3.4.8,4.9,1.5,1.2.5,2.7,2,4,2.3h0ZM51.2,215.7c.2,0,.5,0,.6-.2.9-.8-3.2-4.9-3.7-5.5-1.1-1.1-1.6,2.5-1.6,3.1,0,.5-.2,1.7.2,2,.3.3,1.4,0,1.8,0,.7,0,1.3.3,1.9.4.3,0,.5,0,.8,0ZM66,32.2c-.6-.4-1.4-.6-2.1-.3-1,.3-1.5,1.5-1.9,2.5-.2.8-.5,1.8.2,2.4h.1c1.7-.6,3.5-1.4,5.1-2.2.3-1-.5-1.9-1.4-2.3ZM90.1,55.7c-3.6-.2-7.8-.2-11.2,1.1-3.5,1.3-6.7,3.1-9.8,5-1.7,1.1-3.4,2.2-5.1,3.3s-3.3,2-2.2,3.6c.9,1.4,1.8,3,3,4.2,2.4,2.7,5.5,3.7,8.6,3.6,7.7-.2,13.9-6.3,17.8-12.4.5-.8,1.2-1.5,1.7-2.4.2-.3.3-.6.2-.9-.2-1.1-3.3.6-4,.8-1.2.4-2.4.8-3.6.8s-.8,0-1.1-.2c-1.7-1.1,1.9-1.9,2.5-2.1,1.9-.6,3.7-1.3,5.5-2.1.7-.3,1.4-.7,2-1.2,1-.9-3.8-1.3-4.3-1.3ZM58.5,137.3c.7,1.9,3.4,4.1,4.6,5.7,3.2,3.9,6.2,8,9.4,12,3,3.7,6.6,6.9,9.6,10.5.9,1.1,1.4,3.2,2.8,3.7h.1c.1,0,.3,0,.4-.2.8-1.7,1.5-3.4,2.7-4.9.8-1.2,4.3-3.6,3.1-5-1.1-1.3-2.5-2.2-3.9-3.2-4.4-3-8.5-6.5-12.1-10.4-1-1.1-1.8-2.5-2.9-3.6-1.1-1-2.5-1.7-3.8-2.5-2.7-1.8-5.2-3.9-7.8-5.7-2.1-1.4-2.6,2.8-2.3,3.6ZM95.2,44c-2.8-5.6-7.6-10.1-13.7-12-2.6-.8-6.1.9-8.2,2.3-3.7,2.4-5.1,5.9-7.2,9.8-2.8,4.8-3.7,10.9-4.8,16.3-.2,1-.8,3.1,0,4,0,0,0,0,0,0,3.8-1.9,7.3-4.6,11-6.7,7-4.1,15.9-4.8,23.8-3.1.3,0,.6.2.9.3,1.8.6.5-3.9.4-4.7-.5-2.1-1.3-4.2-2.2-6.1ZM126.3,153.4c0-.2-.6-.4-.8-.2-.2.2,0,.9,0,1.2.3-.1,1-.6.8-1ZM107.1,61c-.9-.2-1.9-.1-2.8-.4-.8-.2-1.5-.7-1.8-1.4-.4-.8-.4-1.3-1.2-1.7-.6-.2-1.3-.2-1.9-.2-.9,0-2.7.2-3.2,1.2-.3.6,2.5,2.4,2.9,2.8,1.2,1.1,2.4,2.3,3.5,3.5,1.1,1.2,2.2,2.4,3.3,3.6.6.6,1.1,1.2,1.7,1.8.3.3,1.2,1.5,1.5,1.5h.1c1.4-.6-.4-7-.6-8.2,0-.3,0-.6,0-.9.3-.7.6-.8-.1-1.3-.4-.3-1-.3-1.5-.4ZM128.4,155.8c0-.2-.1-.4-.2-.5-.2-.1-.5-.1-.6,0-.8.5-1,1.7-1.5,2.5-.5,1-1.1,2-1.8,2.9-.2.3-.5.7-.6,1.1-.1.4-.2.9,0,1.2,0,0,.1.2.2.2,1.1.5,2.5-3.1,3.1-3.7,1.9-1.8,1.5.7.9,1.8s-2.9,3.3-2.4,4.6c1.3-.6,2.6-1.3,3.8-1.9,1.4-.7.8-1.9.4-3-.6-1.8-.9-3.6-1.4-5.3ZM128.1,75.3c3.7-1.1,4.1-4.8,3.3-8.1-1.3-5.5-4.4-11.4-10-13.6-4-1.5-8.8-2.1-12.9-.9-1.7.5-3.3,1.2-4.9,1.9-.7.3-2.2,1.2-.6,1.6.8.2,1.8.2,2.5.6.6.3.6.8.9,1.4.3.6.5.6,1.2.8,1,.3,4.8.7,4.2,2.5-.3.9-1.2.8-1.7,1.4-.6.8-.1,1.5.3,2.4,1.6,3.5-.5,7.6,1.5,11,.1.2.2.4.4.5,1.1.7,1.5-2.1,1.8-2.6.7-1.1,1.3-.2,1.3.7,0,.7-.4,1.3-.6,2-.3,1-.6,2.1-.4,3.2,0,0,0,.1,0,.2,0,0,.2,0,.3,0,1-.6,1.4-2.8,1.6-3.9.3-1.3.6-2.9-.2-4.1-.4-.6-1-1-1.6-1.3-.9-.5-2-1-2.5-1.9-.1-.2-.2-.4-.1-.6.4-1.3,4.3,1.1,4.9,1.5,1.4,1.1,1.5,2.1,1.5,3.8,0,.4,0,.8.3,1.1.3.4.8.6,1.2.6,2.6.5,5.5.8,8.1,0ZM130.5,164.9c-1.5,1.1-3.1,2.2-4.6,3.4-1.1.8.8,3.5,1.5,4.3,0,0,0,0,0,0,1-1.6,1.8-3.2,2.5-4.9.1-.3,1.4-3.4.5-2.8ZM133.5,218.6c1.2-.7,1.7-2.2,1.7-3.4,0-.7-1-2.3-1.6-1.1-.4,1-.5,2-1,2.9-.4.7-.7,1.5-.4,1.8.2.2.6.2,1.3-.2ZM138.9,203.9c-.7-.5-2.3-.4-3.2-.4-1.2,0-.9,1.1-.9,2,0,1.3,0,2.7-.1,4,0,.5-.1,1.1,0,1.6.3.9,1.2,1.4,2.1,1.4,3.8.1,3.8-4,3-6.7-.2-.6-.3-1.6-.9-2ZM143.4,193.9c.5-3.2-.8-6.1-2.6-8.7-1.4-2.2-3.5-3.4-5.7-4.7-.2-.1-.5-.3-.7-.5-.2-.2-.3-.4-.4-.7-.9-1.5-1.7-3-2.4-4.6-.3-.6-1.1-3.7-2-2.4-.6.8-1.4,2-1.4,3,0,1,.7,2.1,1,3,.8,2.1,1.5,4.2,2.1,6.3.5,1.5,1,3.1,1.4,4.6.1.4.8,3,1.4,1.4.4-.9,1.1-2.5,1.9-2.4.3,0,.5.4.5.7,0,1.5-1.2,3.2-1.5,4.7-.4,1.7-.5,3.4-.4,5.1,0,1,.5,1.9,1.3,2.3.3.2.7.3,1.1.3.8,0,1.7-.3,2.3-.8,2.2-1.5,3.4-4.3,3.8-6.8ZM140.7,203.2c-.3,1.2,1,2.3,2.2,2.3.5,0,.9,0,1.2-.4.4-.4.7-.9.9-1.5.5-1.5.6-3,.2-4.5-.2-1-.8-2.2-1.5-.7s-1,1.8-1.5,2.6c-.4.7-1.4,1.4-1.6,2.2ZM161.1,277c-1.4-6.9-7.2-11-13.6-12.9-4.2-1.2-8.6-1.7-12.9-2.1-.9.2-1.6,1-2.4,1.6-1.9,1.3-4.7,2.8-5.5,5-.1.3-.4.9-.8.6-2.3-3.5,5.3-6,6.7-8.4,0-.2,0-.3-.3-.3-1.6-.1-3.8,2-5.3,2.6-.8.2-2,.3-1.5-.7.4-.6,1.2-1,1.8-1.4,1.1-.7,2.2-1.3,3.4-1.9.7-.4,1.6-.5,1.9-1.2.4-1.8-.3-4.2-.6-6-.4-3.1-1.3-6.1-1.9-9.2-.8-4.9-2.1-9.9-4.2-14.5-.3-.7-.9-.9-1.5-.5-1,.8-2,1.6-3.1,2.3-19.2,13.3-14.1,2.6-12.1,20.4.4,3.5.7,7,.8,10.5,0,1.7,0,3.4-.1,5-.2,1.5-1.3,2.6-2,3.9-.7,1.3-.9,2.9-.5,4.3.3,1.3,1.8,1.2,2.9,1.3,6.4.9,12.8,1.7,19.1,3.2,2.1.5,4.3,1.1,6.4,1.7,2,.6,4,1.4,6.1,1.8,1.2.2,2.4.4,3.6.5,3,.2,6,0,9-.4,1.7-.3,3.5-.5,5-1.3,1.6-.8,1.7-2.2,1.4-3.9ZM148.6,183.1c-.9,1.2-3.2,4.1-2.8,5.7.2,0,.3,0,.4-.2,2.3-3.6,4.6-7.2,6.9-10.8.3-.4.2-1-.3-.4-1.5,1.8-2.9,3.9-4.3,5.8ZM145.9,186.3c2.2-4.2,4.8-8.5,8.7-11.2.5-.3,1-.7,1.1-1.3.1-.9-1-1.8-1.5-2.4-.2-.3-.5-.5-.8-.7-.8-.3-1.4.4-1.7,1l-4.9,6.4c-.8,1-1.6,2.1-2.4,3.1-.6.8-1.5,1.6-1.8,2.5-.5,1.3.9,1.9,1.7.8,2.3-3.5,4.2-7.3,7.3-10,.9-.8.5.7.2,1.1-2.7,3.1-4.9,6.5-7.2,10-.2.4-.9,1.4-.2,1.7,0,0,.2,0,.2,0,.2,0,.5,0,.7-.2.3-.2.4-.5.6-.8ZM43.5,68.7c1.2,2.4,1.2.3,1.4-1,0-.5.5-2.8,1.2-1.6.1.2.2.4.2.6.5,2.8,0,5.8-1,8.5-.2.8-1.6,4.1-1,4.8,0,0,0,0,0,0,2.4,0,4.2-2.7,5.6-4.2,2.1-2.2,4.4-4.4,6.7-6.4,1.3-1.1,2.3-2.2,2.5-3.9.3-1.7,0-3.4.3-5.1.8-8.2,3.8-17.3,9.3-23.5.2-.3.5-.8.1-1,0,0-.2,0-.3,0-5.7.8-10.9,7.6-14.8,11.2-3.6,3.4-7.6,5-10.7,8.9-2.8,3.5-1.8,8.8.2,12.7ZM54.5,231.1c0-1.5-.5-2.9-.8-4.4-.8-1.5-2.7-1.8-4.2-2.4-1.3-.4-2.8-.8-4.2-.8-1,0-2.6.1-2.1-1.3.8-1.2,2.1.1,1.6-2.2-.2-3.7-.3-7.7.4-11.3.2-.8.5-1.5-.1-2.1-3.1-3.2-7.3-5.8-11.7-6.4-1.7-.2-1.6,10.4-1.6,11.7,0,1.8,0,3.5,0,5.3,0,1.5-.1,2.5-1.2,3.6-3.1,3.3-5.4,7.6-5.7,12.1-.1,2.6.4,5.3,1.3,7.7.3.8,2.6,6.5,3.8,5.8.6-.3,0-1.1.6-1.4,1.3-.5,2.4,3,2.8,3.7,1.1,1.8,4,3.6,6.3,3.4.3,0,.5,0,.7-.2,1.5-.5.5-1.8,0-2.8s-.6-1.4-.3-1.7c.5-.5,1,.6,1.2,1,1.3,2.1,5.2,4.4,7.6,2.8,1.3-.9,3.1-3.6,1.8-5.1-.4-.5-.9-.8-1.4-1.2-3.4-2.7-3.7-8.3-2.6-12.2.3-1,1.2-3,2.4-2,.9.7-1.8,2.8.4,2.8.5,0,1.1,0,1.6,0,1.8,0,3.2-.5,3.3-2.5ZM53.5,206.4h.1c.9-.1,2.1-1,2.5-1.7,0-.2,0-.3,0-.5-1.6-3.8-3.4-7.5-5.7-10.9-1.4-2.1-3.3-5.3-5.8-6.3,0,1.1,1.8,2.8,2.4,3.6,1,1.3,1.9,2.7,2.7,4.2,1.7,3.6,2.2,8,3.8,11.6ZM52.4,192.8c.6.9,1.3,2.8,2.4,3.3.4.2.7,0,1-.9,3.5-11.1,3.8-23.7-.2-34.7-1-2.7-2.5-6.3-3.4-8.8-.2-.4-.2-.6-.5-.8-1.2-.6-3.3-.3-4.5,0-4,5.4-8,11.2-10.8,17.3-.8,1.7-1.5,3.5-2.1,5.3-.7,2.1-1.7,3.7.5,5,2.3,1.3,4.7,2.6,6.9,4,4.2,2.8,8,6.3,10.9,10.4ZM53.1,101.6c.5,2.2-1.8-.2-2.2.2,0,0-.1.2-.1.3-1.1,4.9-.4,9.8,1.1,14.5.1.4.3.8.4,1.2,1.3,3.7,3.2,7.2,5.6,10.3,2.6,3.3,6.1,5.9,9.4,8.5,1.1.8,2.2,1.7,3.4,2.2,1.3.6,2.6,1,4,1.4,1.2.4,2.6.9,3.8,1.1,0,0,.1,0,.2,0v1.2c-2.4-.2-3.2-.2-3.2.2.1,2.1,3.1,3.9,4.5,5.2,3.9,3.4,8.1,6.3,12.1,9.7,1.3,1.1,2.8,2.2,3.9,3.6,1,1.2,1.7,2.5,3,3.4h.1c1.3.1,1.5-3.4,1.3-7.6h1.1c0,.5.2,1,.9,1.1.8.2,1.4.2,2.1.7.7.5,1.3,1,2,1.5.2.1.4.2.6.2s.2-.1.2-.3c.6-2.2-1.8-15.8-2-17.4,0-.5-.2-1.8-.5-3l.9-.2c1.4,6.2,2.5,13,2.9,19.3,0,.7-.4,3.1-1.4,3-.3,0-.6-.3-.8-.5-.8-.6-2.9-2.1-3.9-2-.4,0-.5.6-.5,1s0,.8,0,1.2c.1,2.3-.9,4.5-.5,6.9.3,1.9,1.3,3.6,2.3,5.3,1.1,1.7,3.4,3.2,3.4,5.4,0,1.8.5,3.4,1.1,5.1.7,1.8,1.5,3.7,2.1,5.5.3.9.5,1.9.9,2.8.4.8,1.2,1.2,1.7,1.8.8.8,1.1,2,1.1,3.1,0,1.6-.9,2.9-.8,4.5l.6,5.3c.1,1.3.3,2.5.4,3.8.2,1.5.7,2,1.5,3.2.8,1.1.9,2.6.3,3.8-.5,1.1-1.2,1.8-1.4,3.1-.1.8,0,1.6-.2,2.3-.1.8-.4,1.6-.6,2.3-.4,1.8.7,2.8.7,4.5,0,.5-.2,1.1-.6,1.5-.4.4-1,.6-1.4,1-.4.4-.4.8-.1,1,.1,0,.3,0,.6,0,1.1-.6,2.3-1.3,3.4-2,5.7-3.6,10.7-8.4,13.6-14.5,3.4-7.3,3.1-15.8,1.5-23.5-1.1-5.6-3.4-10.8-5.2-16.2-2.1-6.5-4.2-13-7.1-19.3-2.8-6.2-7.2-11.5-10.2-17.5-.2-.4-.4-.8-.2-1.2.2-.4.8-.5,1.2-.3s.7.6.9,1c3.8,5.8,7.3,11.8,10.5,18,.2.5.6,1.1,1.2,1.1.7,0,1.1-.9,1.1-1.7,0-1.5-.5-2.9-1.1-4.2-2.9-6.9-7.2-13.1-12.1-18.7-.4-.4-.8-.9-1.4-1.1-.7-.2-1.4,0-2,.5-.6.4-1,.7-1.4,1l-.7-1c4.4-2.9,7.7-7.2,10-11.9,1.5-3,2.6-6.3,3.2-9.7.1-.8.3-1.7.4-2.6.9-8.6-1.2-17.1-4.6-24.9,0,0,0-.2-.1-.2-1.7-3.9-3.6-7.6-6.2-11-1.6-2.2-3.4-4.2-5.3-6.2-.9-.9-1.8-1.7-2.7-2.6-.8-.8-1.6-1.8-2.4-2.6-.6-.6-1.6-1.2-2.3-.4-.9,1.1-1.5,2.5-2.3,3.6-.8,1.1-1.6,2.2-2.4,3.2-1.8,2.1-3.7,4.1-5.8,5.9-2.7,2.1-5.8,3.8-9.3,4.3-3.8.5-6.8-.9-10.1-2.7-.2-.1-.5-.3-.7-.3-1.4-.2-1.7,2.5-2,3.4-.8,2.5-1.8,4.9-2.8,7.2-.5,1.3-1.1,2.7-1.8,4-.3.6-.8,1.2-1.4,1.6-1.2.7-2.8,0-3.3-1.3,0-.2-.1-.4-.2-.5,0-.2-.1-.4-.1-.6,0-.1,0-.3,0-.4-.5-2.8-2.1-8.5-6.1-7.5-1,.2-1.9,1-2.3,2-2.7,6.4-2,14.2,3.4,18.9.9.8,1.3-1.8,1.4-2.3.2-1.6,0-3.2,0-4.8l-.3-4.7c0-.2,0-.4-.1-.6s-.3-.3-.5-.3c-.1,0-.2.1-.3.3-.3.4-.7.7-1,1.1,0,.1-.2.2-.4.3-.2,0-.4-.1-.5-.3s-.1-.4,0-.6c0-.8.5-1.6,1.2-2.1.7-.5,1.6-.6,2.4-.2.6.3,1,1,1.2,1.7,0,.1,0,.2,0,.3,0,.3.1.7.1,1,0,2.2-.5,4.5.2,6.6.5,1.4,1.5,2.6,1.9,4ZM59.1,69.2c-.6.2-1.5,1.6-1.9,2-.8.8-1.6,1.6-2.5,2.5-1.6,1.6-3.3,3.3-4.9,4.9-.2.2-.4.5-.5.8-.1.6.7,1,1.1,1.2,1.3.9,2.2,2.1,2.9,3.5.4.8.9,4.6,2,4.9,0,0,.2,0,.2,0,.4,0,.6-.4.8-.6.6-.9,1-1.9,1.4-2.9.6-1.8,1.3-3.6,1.9-5.4.5-1.5,1-3.4,1.7-4.8.3-.6,1.3-.8,1.3-1.5,0-.2-.1-.5-.2-.7-.5-1-2-4.5-3.4-3.9ZM52.4,211.9c.1-1.7-.5-3.6-.8-5.2-.4-1.9-.9-3.8-1.5-5.6-.6-2-1.3-5.6-3-7-5.2-4.1-12.6-7-19.1-5.7-.9.2-.9,3.1-1,3.7-.2,1.5-.4,3-.6,4.4-.3,1.7,2.1,1.3,3.1,1.3,1.5,0,2.9.3,4.3.6,6.8,1.5,11.9,5.7,16.1,11,.5.6,1.6,2.7,2.3,2.9h0c.1,0,.2-.2.2-.4ZM55.7,229.3c.5,2.2,2.3,3,4.3,3.4,7.2,1.4,14.1,3.1,21.4,3.7.7,0,1.3,0,1.9.1,6.6.4,13.3.4,19.9,0,2.2-.1,5.2,0,6.6-2,.5-.7.6-1.5.5-2.3,0-.8-.5-1.5-.6-2.3,0-.6,0-1.2.3-1.8.3-.5.8-.8,1.3-1.1,1.8-1.4,1.7-4.5,1.6-6.5,0-1.3-1-1.8-1.6-2.8-.7-1-.8-2.3-.4-3.4.4-1,1.1-1.8,1.4-2.7.7-2.5-.3-6.2-.9-8.7-.3-1.1-1-1.6-1.8-2.3-2.5-2.1-2-4.7-.7-7.2.7-1.3,0-2.7-.4-4.1-.5-1.5-1.1-3-1.8-4.5-.8-1.6-1.9-1.9-3.3-2.8-1.1-.7-1.8-2-2-3.3-.2-1.4.9-2.7.7-4.1-.2-1.2-1.2-2.5-1.8-3.6-.8-1.3-1.5-2.6-2.4-4-.8-1.3-3.2-6.1-5.1-5.5-.4.1-.7.4-1,.7-2.7,2.7-4.5,6.1-5.7,9.7-.6,1.8-1.9,0-2.4-.8-1.1-1.5-2.1-2.9-3.3-4.3-2.3-2.9-4.8-5.6-7.2-8.3-2.7-3-5.4-6.1-7.8-9.3-2.2-3-5-6.6-7.1-9.6-.8-1.2-.7-1.1-1.7-.1-2.1,2.1-4.2,4.2-6,6.5-.5.6-1.7,1.7-1,2.5.7.8,2,.2,2.8,1,.4.5.7,1.1.9,1.7,3,7.6,5.6,15,6.4,23.1,0,.5,0,1.2.4,1.6.6-.5.8-1.6.9-2.3.4-1.7,2.2-3.1,1.7-.3-.6,3.3-1.6,6.6-2.7,9.8-.9,2.9-1.1,6-1.8,8.9-.4,1.8-.8,4.8-2.4,6-.3.3-.2.7,0,1,1.9,4.4,3.4,5.6-1.1,9-1.3.8-.9,2.4-.6,3.8.2,2.2.5,5.6-2.6,5.8-1.6.3-3.5-.4-2.6,2,.2.6.1,1.4-.4,1.5-.7,0-1-1-1.3-1.7-.8-1.9-1,.7-.6,1.5.9,1.9,4.2,2.1,5.9,3,2.2,1.2,2.5,3.3,3,5.5ZM37.1,290.9c9.5,3.5,17.6,2.8,19.1,2.7.4,0,.8,0,.9,0,4.2-.5,8.3-1.9,12.2-3.4,2-.8,3.9-1.7,5.9-2.6,1.8-.8,3.6-1.6,5-2.9,2.2-2.1,2.6-5.1,1.5-7.9-1.2-3.3-1-6.9-1.4-10.4-1.3-10.3-.8-22.4-.5-25.9,0-.6-.4-1-1-1-2.9,0-11.7-.1-25.5-3.2-.7-.1-1.2.4-1.2,1.1.1.8.2,1.5.3,2.3.2,1.4.7,4.5.9,11,0,2.9,0,6.3,0,8.2,0,4-.2,6.1,1.2,7.1.7.5,1.1.2,3.5.4,2.1.1,4.2.8,8.4,2.1,0,0,2.5.7,3,2,0,.1,0,.2,0,.3,0,.1-.2.2-.4.2-.9,0-1.7-.3-2.5-.4-.1,0-.3,0-.4.1,0,.1,0,.2.2.3.9.8,2.1,1.2,2.7,2.3,0,.1.1.3.1.4,0,.2-.3.4-.5.4-.2,0-.4-.1-.6-.2-2.3-1.2-4.5-2.8-6.9-3.9-3-1.4-6.1-1.9-9.3-1.1-1.4.6-16.5,6.8-18.9,13.9-.7,2.1-.9,4.4.6,6.2.9,1,1.9,1.6,3.6,2.3ZM53.7,140.9c.9-.8,2.2-1.9,2.7-3.8.3-1.1.1-2,.7-3.3,0-.2.2-.4.3-.6.5-1,.5-2.1-.2-3-.5-.7-1.1-1.5-1.8-2.5-4.6-7.2-6.1-14.9-6.2-15.4-.6-3.3-.6-5.9-2.7-8.9-1-1.5-1.2-1.2-2.3-2.6-3.6-5-2.9-11.3-2.8-12.5.4-2.8,1.1-3,1.2-5.9,0-2.1-.3-3.3,0-5.6.1-1,.4-1.9.6-2.6.3-.8.2-1.7-.3-2.4-1.7-2.6-4.2-7.4-2.9-12.6.5-2.2,1.7-4.2,5.9-8.6,3-3.1,7.3-7.2,13-11.5.8-.6,1.2-1.5,1.1-2.4-.4-3.7,1.9-6.6,4.2-6.9,1.6-.2,2.9.6,3.9,1.6.8.8,2,1,3.1.5,2-.9,4.8-1.7,8-1.6,8.4.3,13.6,6.7,15.4,8.9,3,3.7,4.5,7.5,5.3,10.5.4,1.6,2.1,2.5,3.7,1.9,9.7-3.8,22.3-1,27.9,8.3,1.6,2.7,2.5,5.8,2.5,9,0,4.5-2.3,7.8-7,8-2.3,0-5.9-.4-8.1,0-1.7.4-1.4,2.1-1.7,3-.3,1.1-1.2,2-1.3,3.1,0,1.2.9,2.4,1.4,3.6.5,1.2,1,2.4,1.4,3.7.9,2.8,1.6,5.7,2,8.7.6,5,.4,10.1-.7,15-.6,2.9-1.6,5.6-2.8,8.3-1.3,2.8-3,5.2-4.7,7.8-.3.4-.5.8-.6,1.2-.2.9.1,1.9.8,2.6.1.1.2.2.4.4,3.9,4.5,7.5,9.4,10.1,14.8,0,0,0,0,0,0,.2.3.3.7.5,1,0,.2.2.4.3.5.3.3.7.3,1.1.2,1.2,0,2.7-.4,3.5.6.4.5.6,1.2.8,1.8.7,2.4,1.4,4.8,2.1,7.1.3,1.1.7,2.2,1,3.2.4,1.1-.2,2.4-.6,3.4-.5,1.4-.5,2.5.1,3.9.5,1.3,1,2.5,1.6,3.8.4.9.8,1.9,1.4,2.8.3.4.6.8.9,1.2.4.4.8.5,1.3.7.8.4,1.6.9,2.3,1.4.4.3.8.6,1.2.8.6.2,1-.1,1.3-.5.5-.7,1-1.3,1.5-2,1-1.3,2-2.6,3-4,1.4-1.9,2.7-4,4.3-5.8.2-.2.4-.5.6-.7.3-.2.6-.3.8-.5.4-.3.5-.9.6-1.3.1-1-.2-2.4.6-3.2.2-.3.6-.5.8-.7.9-1.1-.2-2.8-.5-3.9-.3-1.2-.5-2.4-.6-3.6-.2-2.2-.2-4.5,0-6.7.3-2.2.7-4.4.8-6.6,0-1.1,0-2.2-.2-3.3-.2-1.4-.5-2.8-.3-4.2.2-1.3.8-2.5,1.8-3.3,1.2-.9,2.7-.9,4.1-.6.4,0,.9.2,1.3.1.9-.2,1.4-1.2,1.9-1.8.6-.8,1.2-1.6,1.9-2.4.9-.9,2.1-1.6,3.4-1.8,2.3-.2,4.6,1.4,6.3,2.9,2.1,2,3.6,4.4,5.4,6.6,1.9,2.4,4.3,4.6,5.2,7.6.5,1.5-.2,2.9-.6,4.3-.4,1.4-.7,2.9-.9,4.3-.5,3.2-.7,6.8.2,9.9.3,1,.7,2.1.6,3.2,0,0,0,.1,0,.2-.1.8-.5,1.6-1,2.2-1,1.5-2.6,2.5-4.2,3.5-2.5,1.5-5.2,2.5-8,3-2.2.4-4.4.5-6.5.2-1.6-.2-3.9-1.3-5.2,0-.5.5-1,1.1-1.3,1.7s-.8,1.2-1.2,1.8c-1,1.3-1.9,2.6-2.8,4-1.8,2.7-3.6,5.5-5.2,8.3-.6,1-1,2.4-2,3-.3.1-.6.2-.7.5-.6.9.6,2.7.9,3.6.3,1.1.6,2.2.8,3.3.3,2.1.4,4.4-.4,6.4-.2.7-.7,1.4-1.3,1.8-.9.7-2.1.6-3,1.2-.9.6-.7,1.9-1.1,2.8-.4,1.1-.8,2.3-1.8,3-1.2.8-2.6.5-3.1,2.2-.3.8-.3,1.7-.6,2.5-.9,2.6-3.4.9-5.2,1.8-.7.3-1.1,1-1.5,1.6-.5.8-1,1.5-1.6,2.3-.8,1-1.2,1.6-.7,2.9.7,1.6,1.6,3.2,2.2,4.8,2.8,7.5,3.8,15.6,5.2,23.4.2,1.2,0,3.2.9,4.1.5.6,1.4.6,2.2.7,4.2.2,8.3,1,12.3,2.4,3.3,1.2,7.3,2.8,9.4,5.9,1,1.5,1.7,3,2.3,4.7.7,1.9,2.1,4.3,1.5,6.4-.4,1.2-1.4,2.2-2.6,2.7-2.7,1.4-5.6,1.7-8.6,1.9-2.5.2-5.1.2-7.6,0h-.3c-2.1-.3-4-1-6-1.6-4.3-1.3-8.6-2.3-13-3.1-4.3-.8-8.7-1.2-13-2.1-1.4-.3-2.8-.5-4.2-.8-1-.2-1.8-.8-2.2-1.7-.6-1.2-.6-2.6-.5-3.9,0-3,2.8-5,2.9-7.9.1-3.9-.1-7.8-.6-11.7-.2-2-.5-4-.8-6-.2-1.5,0-3.2-.8-4.5-1.1-2.4-5.4-1.6-7.5-1.6-3.5,0-6.9,0-10.4-.1-1.8,0-5.1-.3-6.5,1.1-1.2,1.2-.8,3.8-.8,5.3,0,1.7,0,3.3.2,5,0,0,0,.1,0,.2,0,11.8.8,21.3,1.8,24.2,1.1,3.2,1.3,6.2-.6,9.2-1,1.6-2.5,2.8-4.1,3.8-1.7,1-3.4,1.9-5.1,2.7-3.8,1.7-7.7,2.8-11.8,3.6-1.4.3-2.7.5-4.1.6-.7,0-1.3.2-2,.2-4.3.4-8.3-.2-12.5-1-3.2-.6-6.6-1.5-9.2-3.5-.8-.6-1.5-1.3-2.1-2.2-2.2-3.4-.4-7.1,1.9-9.8,2-2.4,4.4-4.5,7-6.2,2.7-1.8,5.7-3.2,8.6-4.9,1.3-.8,2.5-1.4,2.8-3.1.2-.8.1-1.6,0-2.4-.1-2.2-.2-4.5-.4-6.7s.2-2.1-.4-2.6c-.6-.5-1.3-.1-1.9.1-.9.4-2.5.6-5.6-.6-.1,0-.4.2-.7.3-3.9,1.4-9.2-1-10.2-3.1,0-.2-.4-.8-1-1.3-.6-.4-1.2-.4-1.4-.4-1.6-.1-3.5-2.9-4.6-5.1-.5-1-2.1-4.3-2.2-9,0-1.4,0-4.1,1.2-7.3,1.1-3,2.8-5.2,4.1-6.5.4-.5.7-1.1.8-1.7.2-2.5.5-4.6.7-6.1.4-2.6.7-3.7,0-5-.6-1.4-1.5-1.7-3.2-3.4-.8-.8-1.8-1.9-2.8-3.4s-.6-1.7-.3-2.6c.2-.5.5-1,.6-1.5.9-5.8,1.9-11.6,1.8-17.4,0-.6-.3-1.3-.3-1.8,0-1.1,2.9-.4,4.1-.5,0,0,.3,0,.5-.2.2-.2.2-.5.2-.5,1.2-3.9,2.5-6.8,3.5-8.7,5.3-10.6,15.6-22.8,19.2-26.2Z"/>
    <path class="st60" d="M182.8,161.2c.1.5.1,1,0,1.6-.3,2.9-2.8,4.4-5.3,4-.6,0-1.2-.3-1.8-.6-9.5-5.3-16.2-15.2-19.4-25.4-.7-2.1-1.7-4.9-.4-6.9.6-.9,1.6-1.6,2.7-1.4.4,0,.8.3.8.7,0,.1,0,.2-.2.4-.8.9-1.6,1.2-1.7,2.4-.2,1.5,0,3,.3,4.4.9,4.1,3.1,7.4,5.9,10.4,1.9,2,3.6,4,5.7,5.8,1.5,1.2,3.1,2.2,4.6,3.3,1.5,1.1,2.9,2.4,4.5,3.3,1.2.7,2.8,1,3.2-.7.2-.8.4-1.6.6-2.4,0,.2.3.9.4,1.2Z"/>
    <path class="st60" d="M180.9,146.8c.7.2,1.9.2,1.7,1.2-.4,1.9-.9,3.7-1.2,5.7-.3,2-.3,3.9-.5,5.9,0,.4,0,.8-.3,1.1-.2.3-.5.5-.8.5-.3,0-.5,0-.8,0-2.4-.8-4.3-2.7-6.3-4.2-2.2-1.6-4.3-3.5-6.2-5.6-3.2-3.5-8.4-9.1-7.4-14.3.3-1.4,1.2-2.7,2.2-3.8.7-.8,2.1-2.4,3.1-2.8.9-.3,1.9,2.3,2.2,2.8.8,1.3,1.7,2.6,2.6,3.8,2.4,3.1,5.3,6.1,8.6,8.3,1,.6,1.9,1.1,3,1.3Z"/>
    <path class="st60" d="M180,137.8c.6,1,3.7,6.6,2,7.2-.1,0-.2,0-.4,0-.9,0-1.8-.5-2.6-1-2.8-1.7-5.4-4-7.5-6.5-1.1-1.3-7.9-10.5-2.7-10.1,2.3.2,4.3,2.2,5.8,3.8,2,2,3.9,4.2,5.4,6.6Z"/>
    <path class="st60" d="M174.4,167.3c.5.3,1.8,1.2,1,1.8-.8.6-2,.8-2.9,1.1-1.3.4-2.6.8-3.9,1-1.1.2-2.3.1-3.5-.1-2.5-.5-4.5-1.7-5.9-3.8-2.3-3.5-3.6-7.5-4.1-11.6-.2-2.1-.3-4.2-.2-6.2,0-.5.3-4.8,1-4.4.4.2.5,1.1.6,1.4,1.8,4.5,4.6,8.5,7.7,12.2,2.9,3.4,6.4,6.3,10.1,8.7Z"/>
    <path class="st26" d="M161.1,277c.3,1.7.3,3.1-1.4,3.9-1.5.8-3.4,1-5,1.3-3,.5-6,.7-9,.4-1.2,0-2.4-.3-3.6-.5-2.1-.4-4.1-1.2-6.1-1.8-2.1-.6-4.2-1.2-6.4-1.7-6.3-1.5-12.7-2.2-19.1-3.2-1.1-.2-2.5,0-2.9-1.3-.4-1.4-.2-3,.5-4.3.7-1.3,1.8-2.4,2-3.9.2-1.6.2-3.4.1-5,0-3.5-.5-7-.8-10.5-2-17.8-7-7.1,12.1-20.4,1.1-.8,2-1.6,3.1-2.3.6-.4,1.2-.2,1.5.5,2,4.6,3.4,9.6,4.2,14.5.6,3.1,1.6,6.1,1.9,9.2.4,1.8,1.1,4.2.7,6-.3.6-1.2.8-1.9,1.2-1.2.6-2.3,1.2-3.4,1.9-.6.4-1.4.8-1.8,1.4-.5.9.7.9,1.5.7,1.5-.6,3.7-2.7,5.3-2.6.2,0,.3.2.3.3-1.4,2.4-9,4.8-6.7,8.4.4.3.6-.3.8-.6.8-2.2,3.6-3.7,5.5-5,.8-.5,1.5-1.3,2.4-1.6,4.3.4,8.7.9,12.9,2.1,6.4,1.9,12.1,6,13.6,12.9Z"/>
    <path class="st60" d="M157.7,168.5c.4.5,1.5,1.2,1.4,2.1-.2.9-1.4.7-2.1.5,0,0,0,0,0,0-1.4-.5-2-1.9-2-3.3,0-.6,0-3,.9-2.9.1,0,.2.1.3.2.9.9.8,2.4,1.6,3.4Z"/>
    <path class="st70" d="M154.2,171.3c.5.6,1.7,1.5,1.5,2.4,0,.6-.6,1-1.1,1.3-4,2.7-6.5,7-8.7,11.2-.2.3-.3.6-.6.8-.2.2-.5.2-.7.2,0,0-.2,0-.2,0-.7-.4,0-1.3.2-1.7,2.2-3.4,4.5-6.8,7.2-10,.4-.4.7-1.9-.2-1.1-3.1,2.8-5,6.6-7.3,10-.8,1.1-2.2.5-1.7-.8.3-.9,1.3-1.8,1.8-2.5.8-1,1.6-2.1,2.4-3.1,1.6-2.1,3.2-4.3,4.9-6.4.4-.5,1-1.3,1.7-1,.3.1.6.4.8.7Z"/>
    <path class="st70" d="M152.9,177.2c.5-.6.5,0,.3.4-2.3,3.6-4.6,7.2-6.9,10.8-.1.2-.2.2-.4.2-.4-1.5,1.9-4.5,2.8-5.7,1.4-2,2.8-4,4.3-5.8Z"/>
    <path class="st22" d="M145.3,199.1c.3,1.5.3,3.1-.2,4.5-.2.6-.4,1.1-.9,1.5-.3.3-.8.4-1.2.4-1.2,0-2.6-1.1-2.2-2.3.2-.8,1.1-1.5,1.6-2.2.6-.8,1.1-1.7,1.5-2.6.7-1.5,1.3-.3,1.5.7Z"/>
    <path class="st22" d="M140.8,185.2c1.8,2.6,3.1,5.5,2.6,8.7-.4,2.5-1.6,5.3-3.8,6.8-.7.5-1.5.8-2.3.8-.4,0-.8-.1-1.1-.3-.8-.4-1.2-1.3-1.3-2.3-.1-1.7,0-3.5.4-5.1.3-1.5,1.4-3.2,1.5-4.7,0-.4-.2-.7-.5-.7-.8-.1-1.5,1.5-1.9,2.4-.7,1.5-1.3-1-1.4-1.4-.5-1.5-.9-3.1-1.4-4.6-.7-2.1-1.4-4.2-2.1-6.3-.3-1-1-2-1-3,0-1,.8-2.2,1.4-3,.9-1.2,1.7,1.8,2,2.4.7,1.5,1.5,3.1,2.4,4.6.1.2.3.5.5.7.2.2.4.3.7.5,2.2,1.3,4.2,2.5,5.7,4.7Z"/>
    <path class="st22" d="M139.8,205.9c.8,2.6.8,6.8-3,6.7-.9,0-1.8-.5-2.1-1.4-.2-.5-.1-1.1,0-1.6.1-1.3.1-2.7.1-4,0-.9-.3-2,.9-2,.9,0,2.5-.1,3.2.4.6.4.7,1.4.9,2Z"/>
    <path class="st22" d="M135.2,215.1c0,1.2-.5,2.8-1.7,3.4-.8.4-1.2.5-1.3.2-.2-.3,0-1.1.4-1.8.5-.9.6-2,1-2.9.5-1.2,1.6.4,1.6,1.1Z"/>
    <path class="st73" d="M131.8,193.3c1.6,7.7,1.9,16.3-1.5,23.5-2.9,6.1-8,10.9-13.6,14.5-1.1.7-2.2,1.3-3.4,2-.3.1-.5.2-.6,0-.3-.2-.2-.6.2-1,.4-.4,1-.6,1.4-1,.4-.4.6-.9.6-1.5,0-1.6-1.1-2.7-.7-4.5.2-.8.5-1.6.6-2.3.1-.8.1-1.6.2-2.3.2-1.2.9-2,1.4-3.1.6-1.2.4-2.7-.3-3.8-.8-1.2-1.4-1.7-1.5-3.2-.1-1.2-.3-2.5-.4-3.8l-.6-5.3c-.2-1.6.7-2.9.8-4.5,0-1.1-.3-2.3-1.1-3.1-.6-.6-1.3-1-1.7-1.8-.5-.8-.6-1.8-.9-2.8-.6-1.9-1.4-3.7-2.1-5.5-.6-1.6-1.1-3.3-1.1-5.1,0-2.2-2.3-3.7-3.4-5.4-1-1.6-1.9-3.4-2.3-5.3-.4-2.4.6-4.6.5-6.9,0-.4,0-.8,0-1.2s.1-1,.5-1c1,0,3.1,1.4,3.9,2,.2.2.5.4.8.5,1,.2,1.4-2.3,1.4-3-.5-6.2-1.5-13-2.9-19.3-.1-.6-.3-1.2-.4-1.8-.4-1.6-.2-2.3.6-3,.3-.3.8-.6,1.3-1,.6-.4,1.3-.7,2-.5.6.2,1,.6,1.4,1.1,4.8,5.7,9.2,11.8,12.1,18.7.6,1.3,1.1,2.8,1.1,4.2,0,.7-.4,1.7-1.1,1.7-.6,0-.9-.6-1.2-1.1-3.2-6.2-6.7-12.2-10.5-18-.2-.4-.5-.8-.9-1s-1-.1-1.2.3c-.2.4,0,.8.2,1.2,3,6,7.4,11.4,10.2,17.5,2.9,6.2,5,12.8,7.1,19.3,1.7,5.4,4,10.6,5.2,16.2Z"/>
    <path class="st19" d="M131.4,67.2c.8,3.3.4,7-3.3,8.1-2.6.8-5.4.5-8,0-.5,0-1-.3-1.2-.6-.2-.3-.3-.7-.3-1.1,0-1.7-.1-2.7-1.5-3.8-.5-.4-4.5-2.8-4.9-1.5,0,.2,0,.4.1.6.5.9,1.6,1.4,2.5,1.9s1.2.7,1.6,1.3c.8,1.2.5,2.8.2,4.1-.2,1.1-.6,3.3-1.6,3.9,0,0-.2,0-.3,0,0,0,0-.1,0-.2-.2-1,0-2.1.4-3.2.2-.6.5-1.3.6-2,0-.9-.6-1.8-1.3-.7-.4.5-.8,3.3-1.8,2.6-.2-.1-.3-.3-.4-.5-2-3.4.1-7.5-1.5-11-.4-.8-.9-1.6-.3-2.4.5-.6,1.4-.6,1.7-1.4.5-1.8-3.2-2.2-4.2-2.5-.7-.2-.9-.3-1.2-.8-.3-.6-.3-1.1-.9-1.4-.7-.4-1.8-.4-2.5-.6-1.6-.4-.1-1.3.6-1.6,1.6-.7,3.2-1.5,4.9-1.9,4.1-1.2,8.9-.6,12.9.9,5.6,2.1,8.6,8.1,9.9,13.6Z"/>
    <path class="st64" d="M130.5,164.9c.8-.6-.4,2.5-.5,2.8-.7,1.7-1.5,3.3-2.4,4.9,0,0,0,0,0,0-.7-.8-2.6-3.5-1.5-4.3,1.5-1.2,3-2.2,4.5-3.4Z"/>
    <path class="st64" d="M129.8,161.1c.4,1.2,1,2.3-.4,3-1.3.6-2.6,1.3-3.8,1.9-.5-1.3,1.8-3.5,2.4-4.6.6-1.1.9-3.5-.9-1.8-.6.6-2,4.2-3.1,3.7,0,0-.2-.2-.2-.2-.2-.4-.2-.8,0-1.2.1-.4.4-.8.7-1.1.7-.9,1.2-1.9,1.8-2.9.4-.8.7-1.9,1.5-2.5.2-.1.5-.2.7,0,.1.1.2.3.2.5.5,1.8.9,3.6,1.4,5.3Z"/>
    <path class="st19" d="M126.3,153.4c.1.4-.5.9-.8,1,0-.3-.2-1,0-1.2.2-.2.7,0,.8.2Z"/>
    <path class="st22" d="M114.2,84.6c3.5,7.8,5.5,16.3,4.6,24.9,0,.9-.2,1.7-.4,2.6-.6,3.4-1.7,6.6-3.2,9.7-2.3,4.7-5.7,9-10,11.9-1.1.7-2.2,1.3-3.4,1.9-.3.1-.7.3-1,.2-.5-.1-.8-.5-.6-1s.5-.7.8-1c2.2-2.1,3.4-5.2,3.3-8.3,0-2.9-1.2-5.1-3.1-7.1-.3-.3-.6-.7-.8-1.1-.4-.8-.3-2-.3-2.9,0-1.1,0-2.2,0-3.3,0-2.2.2-4.4.5-6.5.1-.9.2-1.9.8-2.6.6-.8,1.5-1.6,2.1-2.4,1.5-1.8,2.7-3.9,3.5-6.1.9-2.1,1.8-5.6-.2-7.4-.7-.6-1.5-1.1-2.4-1.5-1.1-.5-1.7-.8-1.3-2.1.7-1.8,1-4,.4-5.9-.3-1-1-2.2-2.1-2.4-.9-.1-1.7.3-2.2,1.1-.5.7-.7,1.6-.7,2.5,0,1.5.1,2.9.2,4.4,0,1.1,0,1.7-1.1,2-1.5.3-2.6,1.1-3.8,1.9-.7.4-2.3,1.4-3,.5-.1-.2-.2-.4-.2-.6-.3-1.5-.8-3-1.8-4.2-.8-.9-2.7-2.3-3.8-1-.3.4-.5.9-.6,1.4,0,.6,0,1.3,0,1.8.3,1.2,1,2.4,1.8,3.4.7.9,1.7,2,1.5,3.2,0,.3-.1.6,0,.9,0,.3.2.4.3.5l-2.6.9c-1.2-1.3-2.5-2.5-4.1-3.4-.5-.3-1.1-.5-1.6-.2-.4.3-.3,1,0,1.4.3.4.8.6,1.3.9,2,1,3.8,2.5,5.1,4.4.5.8,1,1.6,1.1,2.6,0,1-.4,2.1-1.1,2.8-.8.7-1.9,1-3,1.2-5.8,1.2-11.8,3-15.8,7.7-.5.6-3.2,4.4-1.2,4.8.4,0,.8-.3,1-.7.2-.5.8-2.3,1.6-1.4.1.1.2.3.3.5,1.2,2.8,2.4,5.5,4.5,7.7,2,2.1,4.4,3.4,7,4.6,2.8,1.3,5.8,1.8,8.9,1.4,3.3-.5,6.7-1.6,9.6-3.2.4-.2,1.1-.6,1.3-1,.2-.5,0-1.2.5-1.6.5-.5,1,.1,1.2.6,3.3,7.4-4.7,14.2-11.8,12.9-.5,0-1.9-.4-1.7.5.3,1.7,3.7,1.6,4.9,1.4,1.2-.1,2.4-.5,3.6-.7,1.3-.2,1.5.3,1.1,1.5-1.1,3.2-3.9,6.1-7.2,7.3-1.1.4-2.2.5-3.3.3-2.5-.3-4.6-2-6.3-4.1-.8-1-1.4-2-2.1-3.1-.5-.9-1-2.2-1.8-2.9-.4-.3-1-.3-1.2.1-.4.9.5,2,1,2.8.3.5,2.4,2.9,1.8,3.5,0,0-.2,0-.3,0s-.1,0-.2,0c-1.3-.2-2.6-.7-3.9-1.1-1.3-.4-2.7-.8-4-1.4-1.2-.5-2.3-1.4-3.4-2.2-3.3-2.5-6.8-5.2-9.4-8.5-2.5-3.1-4.3-6.6-5.6-10.3-.1-.4-.3-.8-.4-1.2-1.5-4.7-2.2-9.6-1.1-14.5,0-.1,0-.2.1-.3.4-.4,2.7,2,2.2-.2-.4-1.4-1.4-2.6-1.9-4-.7-2.1-.1-4.4-.2-6.6,0-.4,0-.9-.2-1.3l2.1-.4c0,.4.2.8.4,1.1.6,1.2,2.1,2,3.3,1.3.6-.4,1.1-1,1.4-1.6.7-1.3,1.2-2.6,1.8-4,1-2.4,2-4.8,2.8-7.2.3-.9.6-3.6,2-3.3.3,0,.5.2.7.3,3.3,1.8,6.2,3.2,10.1,2.7,3.4-.5,6.6-2.2,9.3-4.3,2.2-1.7,4-3.8,5.8-5.9.9-1,1.7-2.1,2.4-3.2.8-1.2,1.5-2.5,2.3-3.6.7-.9,1.7-.2,2.3.4.9.8,1.6,1.8,2.4,2.6.9.9,1.8,1.7,2.7,2.6,1.9,1.9,3.7,4,5.3,6.2,2.5,3.4,4.5,7.1,6.2,11,0,0,0,.2.1.2Z"/>
    <path class="st73" d="M113.2,220.5c0,2,.1,5.1-1.6,6.5-.4.4-1,.7-1.3,1.1-.3.5-.4,1.2-.4,1.8.1.8.5,1.5.6,2.3,0,.8,0,1.6-.6,2.3-1.4,2-4.4,1.9-6.6,2-6.6.3-13.3.4-19.9,0-.7,0-1.3,0-1.9-.1-7.3-.6-14.3-2.3-21.4-3.7-2-.4-3.8-1.2-4.3-3.4-.5-2.2-.8-4.3-3-5.5-1.7-.9-4.9-1.1-5.9-3-.4-.8-.2-3.4.6-1.5.3.7.6,1.7,1.3,1.7.4,0,.5-.8.4-1.5-.9-2.4,1-1.7,2.6-2,3.1-.1,2.8-3.5,2.6-5.8-.3-1.4-.7-3,.6-3.8,4.5-3.5,2.9-4.6,1.1-9-.1-.4-.2-.7,0-1,1.6-1.2,2-4.2,2.4-6,.7-3,.9-6,1.8-8.9,1-3.2,2.1-6.5,2.7-9.8.5-2.8-1.2-1.4-1.7.3-.2.8-.3,1.8-.9,2.3-.3-.4-.3-1.1-.4-1.6-.8-8.1-3.4-15.5-6.4-23.1-.2-.6-.5-1.2-.9-1.7-.8-.9-2.1-.3-2.8-1-.7-.8.4-1.9,1-2.5,1.8-2.3,3.9-4.4,6-6.5,1-1,.9-1,1.7.1,2.1,3,4.9,6.7,7.1,9.6,2.4,3.2,5.1,6.3,7.8,9.3,2.5,2.7,4.9,5.5,7.2,8.3,1.1,1.4,2.2,2.9,3.3,4.3.6.8,1.9,2.6,2.4.8,1.1-3.6,3-7,5.7-9.7.3-.3.6-.6,1-.7,1.9-.6,4.3,4.2,5.1,5.5.8,1.3,1.6,2.6,2.3,4,.6,1.1,1.6,2.3,1.8,3.6.2,1.4-.9,2.7-.7,4.1.2,1.3.9,2.5,2,3.3,1.4.9,2.5,1.2,3.3,2.8.7,1.5,1.3,3,1.8,4.5.4,1.3,1.1,2.7.4,4.1-1.4,2.6-1.8,5.1.7,7.2.8.7,1.5,1.2,1.8,2.3.6,2.5,1.6,6.1.9,8.7-.2,1-1,1.8-1.4,2.7-.4,1.1-.2,2.4.4,3.4.6,1,1.5,1.5,1.6,2.8ZM91,199.4c1.2-3,1.7-6.2,1.3-9.4-.2-1.6-.5-3.2-.6-4.8,0-1.3-.1-2.6-.2-3.9,0-2.1-1.3-4.3-3.7-4.3-.9,0-1.7.3-2.5.5-5.7,2-11.2,4.9-16,8.6-1.6,1.2-3.2,2.2-2.7,4.6.2,1,.8,2.2,1.5,2.9.8.7,1.8,1,2.4,1.9,0,0,0,0,0,.1.4.5.5,1.2.7,1.8.5,1.9,1.5,3.6,2.7,5.1.7.8,1.5,1.6,2.3,2.3,1.4,1.1,3,1.9,4.8,2.2,2.6.4,5.1-.7,6.8-2.7.3-.3.6-.7.9-1,.9-1.2,1.6-2.5,2.1-3.8Z"/>
    <path class="st23" d="M108.6,63.6c.2,1.2,2.1,7.5.6,8.2h-.1c-.4,0-1.2-1.2-1.5-1.5-.6-.6-1.2-1.2-1.7-1.8-1.1-1.2-2.2-2.4-3.3-3.6-1.1-1.2-2.3-2.4-3.5-3.5-.5-.4-3.2-2.2-2.9-2.8.5-1,2.3-1.2,3.2-1.2.6,0,1.3,0,1.9.2.8.3.9.9,1.2,1.7.3.7,1,1.2,1.8,1.4.9.3,1.9.2,2.8.4.4,0,1.1.1,1.5.4.7.5.4.6,0,1.3-.1.3,0,.6,0,.9Z"/>
    <path class="st64" d="M105.5,142.6c.3,1.6,2.6,15.2,2,17.4,0,.2-.1.3-.2.3-.2,0-.4-.1-.6-.2-.7-.4-1.3-1-2-1.5-.7-.5-1.3-.5-2.1-.7-.8-.1-.9-.6-.9-1.1,0-.3,0-.7,0-1.1-.2-2.7-.4-5.3-.6-8-.2-2.4-.3-4.8-1.1-7.1s-.6-1.6.2-2.2c.3-.2.7-.4,1.1-.5.5-.2.9-.4,1.3-.7.2-.1.4-.2.6-.3.9-.2,1.5,1.2,1.8,2.8.3,1.2.4,2.5.5,3Z"/>
    <path class="st20" d="M107,86c2.1,1.8,1.1,5.2.2,7.4-.9,2.2-2.1,4.2-3.5,6.1-.7.8-1.5,1.6-2.1,2.4-.6.7-.7,1.7-.8,2.6-.2,2.2-.4,4.4-.5,6.5,0,1.1,0,2.2,0,3.3,0,.9,0,2.1.3,2.9.2.4.5.8.8,1.1,1.9,2,3.1,4.2,3.1,7.1,0,3-1.1,6.1-3.3,8.3-.3.3-.6.6-.8,1s0,.9.6,1c.4,0,.7,0,1-.2,1.2-.5,2.3-1.2,3.4-1.9l.7,1c-.9.7-1,1.4-.6,3,.1.6.3,1.2.4,1.8l-.9.2c-.4-1.5-.9-2.9-1.8-2.8-.2,0-.4.2-.6.3-.4.3-.9.5-1.3.7-.4.1-.8.3-1.1.5-.7.6-.4,1.5-.2,2.2.8,2.3.9,4.7,1.1,7.1.2,2.7.4,5.3.6,8,0,.4,0,.8,0,1.1h-1.1c-.3-5.4-1.2-11.9-1.4-13-.2-.9-.3-3-1.6-1.7-4,4.3-10.6,6.7-15.5,2.1-.7-.6-.8-1.5-1.9-1.7-.6,0-1.1-.1-1.6-.2v-1.2c.2,0,.3,0,.4,0,.6-.6-1.5-3-1.8-3.5-.5-.7-1.3-1.9-1-2.8.2-.5.9-.5,1.2-.1.7.7,1.2,2,1.8,2.9.6,1.1,1.3,2.1,2.1,3.1,1.6,2.1,3.8,3.7,6.3,4.1,1,.1,2.1,0,3.3-.3,3.3-1.1,6-4,7.2-7.3.4-1.2.2-1.7-1.1-1.5-1.2.2-2.4.5-3.6.7-1.2.2-4.5.2-4.9-1.4-.2-.9,1.2-.6,1.7-.5,7.1,1.4,15.1-5.5,11.8-12.9-.2-.5-.7-1.1-1.2-.6-.5.4-.2,1.1-.5,1.6-.2.5-.9.8-1.3,1-2.9,1.6-6.3,2.7-9.6,3.2-3.1.4-6.1,0-8.9-1.4-2.6-1.2-5-2.5-7-4.6-2.1-2.2-3.3-5-4.5-7.7,0-.2-.1-.3-.3-.5-.8-.9-1.4,1-1.6,1.4-.2.4-.6.8-1,.7-2-.4.7-4.2,1.2-4.8,3.9-4.8,10-6.5,15.8-7.7,1.1-.2,2.2-.5,3-1.2.8-.7,1.2-1.8,1.1-2.8,0-.9-.5-1.8-1.1-2.6-1.3-1.9-3-3.4-5.1-4.4s-.9-.4-1.3-.9c-.3-.4-.4-1,0-1.4.4-.4,1.1-.1,1.6.2,1.5.9,2.9,2.1,4.1,3.4,1.3,1.4,2.4,2.9,3.2,4.6.4.8.7,1.6.7,2.4s0,.6-.1.9c-.7,2.4-3.4,3.2-5.6,3.7-3,.7-5.8,1.2-8.6,2.5-.9.4-1.9.9-2.8,1.4-1.3.7-2.2,1.3-2,3,.1,1.5.6,2.9,1.3,4.2,3.4,6.6,11.4,10.8,18.7,9.3,2.4-.5,4.7-1.1,6.9-2.3.4-.2.9-.5,1.2-.9.5-.7.3-1.9.3-2.7,0-1.1,0-2.3,0-3.5,0-3.1-.2-6.2.3-9.3,0-.4.1-.9,0-1.3-.3-1-1.5-.5-2.2-.4-1.3.3-2.8.5-4-.2-1.3-.7-1.9-2.2-2-3.6,0-.2,0-.4,0-.6,0-.8.2-1.6.6-2.3.2-.3.5-.5.8-.3,0,0,.1.2.2.3.4,1.2-.3,3.3.6,4.3,1.7,1.4,4.6.4,6.2-.6,4.2-2.6,7.1-7.5,7.4-12.4.2-2.9-4.1-3.3-6.1-3.2-3.2.2-6.4,1.5-8.8,3.7-.3.3-2.5,3-3.4,2.7-.2,0-.3-.2-.3-.5,0-.3,0-.6,0-.9.1-1.2-.9-2.3-1.5-3.2-.8-1-1.4-2.1-1.8-3.4-.1-.6-.2-1.3,0-1.8,0-.5.2-1,.6-1.4,1.1-1.2,3,.1,3.8,1,1,1.2,1.5,2.7,1.8,4.2,0,.2,0,.4.2.6.6.9,2.3-.1,3-.5,1.2-.7,2.4-1.5,3.8-1.9,1.2-.3,1.1-.9,1.1-2,0-1.5-.2-2.9-.2-4.4,0-.9.2-1.8.7-2.5.5-.7,1.4-1.2,2.2-1.1,1.1.2,1.8,1.4,2.1,2.4.6,1.9.2,4.1-.4,5.9-.5,1.3.2,1.6,1.3,2.1.9.4,1.7.9,2.4,1.5ZM100.9,81c.9.3,1.3-2.7,1-3.1-.3-.6-.8-.9-1.1,0-.3.9-.4,1.8-.2,2.6,0,.3.1.4.2.5ZM87.5,85.7c2,.4,1.4-2.6-.2-2.6-1.1,0-1.2,1.7-.3,2.4.2.1.4.2.6.3Z"/>
    <path class="st22" d="M100.3,85.5c2.1,0,6.3.3,6.1,3.2-.3,4.9-3.2,9.8-7.4,12.4-1.6,1-4.5,2-6.2.6-.9-1-.2-3-.6-4.3,0-.1,0-.2-.2-.3-.2-.2-.6,0-.8.3-.5.7-.6,1.5-.6,2.3h-1.2c0-.9-.3-1.7-.7-2.5-.8-1.7-2-3.2-3.2-4.6l2.6-.9c.9.3,3.1-2.4,3.4-2.7,2.3-2.2,5.6-3.5,8.8-3.7Z"/>
    <path class="st63" d="M101.9,77.9c.2.4-.1,3.5-1,3.1-.1,0-.2-.2-.2-.5-.2-.9-.1-1.8.2-2.6.3-.9.8-.6,1.1,0Z"/>
    <path class="st22" d="M100.6,156.8c.2,4.2,0,7.7-1.3,7.7h-.1c-1.3-.9-2-2.2-3-3.4-1.1-1.4-2.6-2.5-3.9-3.6-4-3.3-8.2-6.2-12.2-9.7-1.4-1.2-4.4-3.1-4.5-5.2s.8-.3,3.1-.2c.5,0,1,.1,1.6.2,1.1.1,1.2,1,1.9,1.7,4.9,4.6,11.5,2.2,15.5-2.1,1.3-1.4,1.4.7,1.6,1.7.2,1.1,1.2,7.6,1.4,13Z"/>
    <path class="st22" d="M98.8,104.6c.1.4,0,.9,0,1.3-.5,3.1-.3,6.2-.3,9.3,0,1.1,0,2.3,0,3.5,0,.9.2,2-.3,2.7-.3.4-.7.7-1.2.9-2.2,1.2-4.5,1.8-6.9,2.3-7.3,1.5-15.3-2.7-18.7-9.3-.7-1.3-1.1-2.7-1.3-4.2-.2-1.6.8-2.2,2-3,.9-.5,1.8-1,2.8-1.4,2.8-1.2,5.7-1.8,8.6-2.5,2.2-.5,4.9-1.3,5.6-3.7,0-.3.1-.6.1-.9h1.2c0,.2,0,.5,0,.7.1,1.4.8,2.9,2,3.6,1.2.7,2.7.5,4,.2.8-.2,1.9-.6,2.2.4Z"/>
    <path class="st64" d="M97.5,50.1c.2.8,1.5,5.2-.4,4.7-.3,0-.6-.2-.9-.3-7.9-1.7-16.8-1-23.8,3.1-3.7,2.2-7.2,4.8-11,6.7,0,0,0,0,0,0-.8-.9-.2-3,0-4,1.1-5.4,2-11.5,4.8-16.3,2.2-3.8,3.5-7.4,7.2-9.8,2.1-1.4,5.6-3.1,8.2-2.3,6.1,1.9,10.9,6.4,13.7,12,1,2,1.7,4,2.2,6.1Z"/>
    <path class="st64" d="M90.1,55.7c.6,0,5.4.4,4.3,1.3-.6.5-1.3.9-2,1.2-1.8.8-3.6,1.5-5.5,2.1-.6.2-4.2,1-2.5,2.1.3.2.7.2,1.1.2,1.3,0,2.4-.4,3.6-.8.7-.2,3.8-1.9,4-.8,0,.3,0,.6-.2.9-.5.9-1.1,1.6-1.7,2.4-4,6.1-10.1,12.2-17.8,12.4-3.2,0-6.2-1-8.6-3.6-1.1-1.3-2.1-2.8-2.9-4.2-1-1.7,1.1-2.9,2.2-3.6,1.7-1.1,3.4-2.2,5.1-3.3,3.1-1.9,6.4-3.7,9.8-5,3.4-1.3,7.6-1.2,11.2-1.1Z"/>
    <path class="st20" d="M92.3,190c.4,3.2-.1,6.5-1.3,9.4s-1.3,2.7-2.1,3.8c-.3.4-.6.7-.9,1-1.7,2-4.2,3.1-6.8,2.7-1.8-.3-3.4-1.1-4.8-2.2-.9-.7-1.6-1.5-2.3-2.3-1.2-1.5-2.1-3.3-2.7-5.1-.2-.6-.3-1.3-.7-1.8,0,0,0,0,0-.1-.6-.9-1.7-1.2-2.4-1.9-.7-.7-1.3-1.9-1.5-2.9-.6-2.4,1-3.3,2.7-4.6,4.8-3.7,10.3-6.6,16-8.6.8-.3,1.6-.6,2.5-.5,2.4,0,3.6,2.2,3.7,4.3,0,1.3,0,2.6.2,3.9.1,1.6.4,3.2.6,4.8ZM91,195.3c.4-3.2,0-6.4-.3-9.5,0-.5-.1-1-.5-1.3-.3-.2-.7-.2-1-.1-.7.2-1.5.6-2.1.9-2.6,1.2-5,2.8-7.5,4.3-1.4.9-2.9,1.7-4.3,2.5-.6.4-1.3.7-1.9,1.1-.5.3-1.1.6-1.2,1.2-.1.5,0,1,.1,1.5.4,1.3,1,2.5,1.6,3.7s1.4,2.3,2.3,3.2c2,1.9,4.7,3.4,7.5,2.8,0,0,.1,0,.2,0,2-.5,3.6-2.2,4.7-3.8.8-1.1,1.4-2.3,1.9-3.5.4-.9.6-2,.7-3ZM87.9,183.3c1.3-.6,2.8-1.1,2.1-3.3-.3-.9-.8-1.5-1.3-1.8-1.2-.6-2.7,0-3.5.3-7.9,3.3-9.4,4.8-14.6,7.9-.7.4-2.2,1.3-2.5,2.8-.2,1.2.4,2.2.4,2.3.1.2.8,1.2,1.9,1.4.9.1,1.6-.4,1.9-.5,2.5-1.7,7.1-4.5,8.6-5.3,1.4-.8,5.6-3,7.1-3.7Z"/>
    <path class="st64" d="M91.3,159.1c1.2,1.5-2.3,3.9-3.1,5-1.1,1.5-1.9,3.2-2.6,4.9-.1.2-.2.3-.4.2h0c-1.4-.5-1.9-2.6-2.8-3.7-3-3.7-6.6-6.8-9.6-10.5-3.2-3.9-6.2-8-9.4-12-1.2-1.5-4-3.8-4.6-5.7-.3-.8.2-5,2.3-3.6,2.7,1.8,5.2,3.9,7.8,5.7,1.2.8,2.7,1.5,3.8,2.5,1.1,1,1.8,2.5,2.9,3.6,3.7,3.9,7.7,7.4,12.1,10.4,1.4,1,2.8,1.9,3.9,3.2Z"/>
    <path class="st64" d="M90.6,185.8c.4,3.2.8,6.4.3,9.5-.1,1-.3,2-.7,3-.5,1.2-1.1,2.4-1.9,3.5-1.1,1.7-2.7,3.3-4.7,3.8,0,0-.1,0-.2,0-2.8.6-5.5-.9-7.5-2.8-1-.9-1.7-2-2.3-3.2s-1.2-2.4-1.6-3.7c-.2-.5-.3-1-.1-1.5.2-.6.7-1,1.2-1.2.7-.3,1.3-.7,1.9-1.1,1.4-.8,2.9-1.7,4.3-2.5,2.5-1.5,4.9-3.1,7.5-4.3.7-.3,1.4-.8,2.1-.9.3,0,.8,0,1,.1.4.3.5.9.5,1.3Z"/>
    <path class="st64" d="M90,180c.7,2.2-.8,2.7-2.1,3.3-1.4.7-5.7,2.9-7.1,3.7-1.5.8-6,3.6-8.6,5.3-.3.2-1,.7-1.9.5-1.1-.2-1.7-1.2-1.9-1.4,0-.1-.7-1.1-.4-2.3.3-1.5,1.7-2.3,2.5-2.8,5.2-3.1,6.7-4.6,14.6-7.9.8-.4,2.3-.9,3.5-.3.5.3,1,.8,1.3,1.8Z"/>
    <path class="st63" d="M87.3,83c1.7,0,2.2,3,.2,2.6-.2,0-.4-.1-.6-.3-.8-.7-.8-2.4.3-2.4Z"/>
    <path class="st26" d="M81.8,276.6c1,2.8.7,5.8-1.5,7.9-1.4,1.4-3.2,2.1-5,2.9-1.9.9-3.9,1.8-5.9,2.6-3.9,1.6-8,2.9-12.2,3.4-.1,0-.4,0-.9,0-1.4.2-9.6.9-19.1-2.7-1.8-.7-2.8-1.2-3.6-2.3-1.5-1.8-1.4-4.1-.6-6.2,2.3-7,17.5-13.3,18.9-13.9,3.2-.8,6.3-.4,9.3,1.1,2.4,1.1,4.6,2.7,6.9,3.9.2.1.4.2.6.2.2,0,.5-.2.5-.4,0-.1,0-.3-.1-.4-.6-1-1.8-1.5-2.7-2.3-.1,0-.2-.2-.2-.3,0-.1.2-.1.4-.1.9,0,1.7.5,2.5.4.2,0,.3,0,.4-.2,0,0,0-.2,0-.3-.5-1.3-3-2-3-2-4.2-1.3-6.3-1.9-8.4-2.1-2.3-.1-2.8.1-3.5-.4-1.4-1-1.2-3.1-1.2-7.1,0-1.9,0-5.3,0-8.2-.2-6.5-.7-9.6-.9-11,0-.8-.2-1.5-.3-2.3,0-.7.5-1.2,1.2-1.1,13.9,3,22.7,3.2,25.5,3.2.5,0,1,.5,1,1-.2,3.6-.8,15.6.5,25.9.4,3.5.2,7.1,1.4,10.4Z"/>
    <path class="st64" d="M69.1,35.9c.3.1.1.7-.1,1-5.6,6.2-8.5,15.3-9.4,23.5-.2,1.7,0,3.4-.3,5.1-.3,1.7-1.3,2.8-2.5,3.9-2.3,2-4.6,4.2-6.7,6.4-1.5,1.5-3.3,4.3-5.6,4.2,0,0,0,0,0,0-.6-.8.7-4.1,1-4.8.9-2.7,1.4-5.6.9-8.5,0-.2,0-.4-.2-.6-.8-1.1-1.2,1.1-1.2,1.6-.2,1.3-.2,3.4-1.4,1-1.9-3.9-3-9.2-.2-12.7,3.1-3.9,7.1-5.5,10.7-8.9,3.9-3.6,9-10.4,14.8-11.2,0,0,.2,0,.3,0Z"/>
    <path class="st23" d="M62.7,73.8c0,.7-1,1-1.3,1.5-.8,1.4-1.2,3.2-1.7,4.8-.6,1.8-1.3,3.6-1.9,5.4-.4,1-.7,2-1.4,2.9s-.5.6-.8.7c0,0-.2,0-.2,0-1.1-.3-1.6-4.1-2-4.9-.7-1.4-1.6-2.7-2.9-3.5-.4-.3-1.3-.6-1.1-1.2,0-.3.3-.5.5-.8,1.6-1.6,3.3-3.3,4.9-4.9s1.6-1.7,2.4-2.5c.5-.5,1.3-1.8,1.9-2,1.5-.6,2.9,2.9,3.4,3.9.1.2.2.4.2.7Z"/>
    <path class="st64" d="M56.2,204.1c0,.2,0,.3,0,.5-.4.8-1.6,1.6-2.5,1.8h-.1c-1.5-3.7-2-8-3.8-11.6-.8-1.5-1.7-2.8-2.7-4.2-.6-.9-2.5-2.5-2.4-3.6,2.5,1,4.4,4.2,5.8,6.3,2.3,3.4,4.2,7.1,5.7,10.9Z"/>
    <path class="st73" d="M55.6,160.4c4.1,11,3.7,23.6.2,34.7-.3.9-.6,1.1-1,.9-1.1-.5-1.8-2.3-2.4-3.3-2.8-4.1-6.7-7.6-10.9-10.4-2.2-1.5-4.6-2.7-6.9-4-2.3-1.3-1.2-2.9-.5-5,.6-1.8,1.3-3.5,2.1-5.3,2.8-6.1,6.8-11.9,10.8-17.3,1.2-.3,3.3-.6,4.5,0,.3.2.4.4.5.8,1,2.5,2.5,6.1,3.5,8.8Z"/>
    <path class="st22" d="M53.7,226.7c.3,1.4.9,2.9.8,4.4-.1,2-1.5,2.4-3.3,2.5-.6,0-1.1,0-1.6,0-2.2,0,.5-2.1-.4-2.8-1.2-.9-2.1,1-2.4,2-1.1,3.9-.8,9.5,2.6,12.2.5.4,1,.7,1.4,1.2,1.2,1.5-.5,4.2-1.8,5.1-2.4,1.6-6.3-.7-7.6-2.8-.2-.3-.8-1.4-1.2-1-.3.3.1,1.4.3,1.7.5.9,1.5,2.3,0,2.8-.2,0-.5.1-.7.2-2.3.2-5.2-1.6-6.3-3.4-.4-.7-1.5-4.3-2.8-3.7-.6.3,0,1.1-.6,1.4-1.2.7-3.5-5-3.8-5.8-.9-2.4-1.5-5.1-1.3-7.7.3-4.5,2.6-8.9,5.6-12.1,1.1-1.1,1.2-2.1,1.2-3.6,0-1.8,0-3.5,0-5.3,0-1.3,0-11.9,1.7-11.7,4.3.6,8.6,3.2,11.7,6.4.7.6.4,1.3.1,2.1-.7,3.7-.6,7.6-.4,11.3.5,2.3-.9,1-1.6,2.2-.4,1.4,1.2,1.4,2.1,1.3,1.4,0,2.8.4,4.2.8,1.5.6,3.4.9,4.2,2.4Z"/>
    <path class="st22" d="M52.8,88.9c0,.1,0,.3,0,.4l-2.1.4c-.2-.7-.6-1.3-1.2-1.7-.7-.4-1.7-.3-2.4.2-.7.5-1.1,1.3-1.2,2.1,0,.2,0,.4,0,.6s.3.4.5.3c.1,0,.3-.2.4-.3.3-.4.7-.7,1-1.1,0-.1.2-.2.3-.3.2,0,.4.1.5.3s.1.4.1.6l.3,4.7c0,1.6.2,3.2,0,4.8,0,.5-.5,3.1-1.4,2.3-5.5-4.7-6.2-12.5-3.4-18.9.4-1,1.2-1.7,2.3-2,4-1,5.6,4.7,6.1,7.5Z"/>
    <path class="st64" d="M51.6,206.8c.4,1.6,1,3.5.8,5.2,0,.3-.1.5-.2.5h0c-.7-.2-1.8-2.3-2.3-2.9-4.2-5.3-9.3-9.5-16.1-11-1.4-.3-2.9-.5-4.3-.6-1,0-3.4.3-3.1-1.3.2-1.5.4-2.9.6-4.4,0-.6.1-3.5,1-3.7,6.6-1.2,14,1.6,19.1,5.7,1.8,1.4,2.4,5,3,7,.6,1.8,1.1,3.7,1.5,5.6Z"/>
    <path class="st19" d="M48,210c.6.6,4.6,4.7,3.7,5.5-.2.1-.4.2-.6.2-.3,0-.5,0-.8,0-.6-.1-1.3-.3-1.9-.4-.4,0-1.5.2-1.8,0-.4-.3-.2-1.6-.2-2,0-.6.5-4.2,1.6-3.1Z"/>
    <path class="st64" d="M41.5,185.9c.3.3,3.6,4.4,2.9,4.5h0c-1.3-.2-2.8-1.7-4-2.3-1.5-.7-3.2-1.3-4.9-1.5-2-.2-4,0-6-.4-1.8-.3-1.2-1.6-1.1-3,0-.9.1-1.7,0-2.6,0-.7-.5-1.5-.4-2.2.2-.8,4.6.8,5,1,1.5.7,2.9,1.6,4.2,2.6,1.6,1.2,3,2.5,4.4,3.9Z"/>
    <path class="st19" d="M31,199.8c.9,1,0,3.8-.7,5,0,0-1-.6-1-.7-1-1-2.6-2.4-3.2-3.7-.8-1.9,4.2-1.4,4.9-.6Z"/>
    <g>
      <g>
        <polygon class="st31" points="75.3 49.7 72.5 50.3 75.7 44.3 73.4 44.9 78.1 35.9 84.4 34.1 80.5 40.9 83.1 40.2 79.1 47.2 82.7 46.3 71.2 57.5 75.3 49.7"/>
        <path d="M83.9,34.5l-4,6.8,2.7-.7-4,7,3.2-.9-9.8,9.5,3.6-6.9-2.7.6,3.2-6-2.3.6,4.4-8.4,5.7-1.6M85,33.7l-1.2.3-5.7,1.6h-.2c0,0,0,.2,0,.2l-4.4,8.4-.5,1,1.1-.3,1.3-.3-2.6,5-.5,1,1.1-.3,1.7-.4-3.1,5.9-1.5,2.8,2.2-2.2,9.8-9.5,1.4-1.3-1.8.5-2.1.6,3.4-6,.6-1-1.2.3-1.5.4,3.4-5.8.6-1.1h0Z"/>
      </g>
      <polygon class="st63" points="75 48.5 78.4 42.4 75.9 43.1 80.4 36 78.6 36.5 74.7 43.8 76.3 43.4 77 43.2 76.7 43.9 73.9 49.3 75.8 48.8 76.6 48.7 74.2 53 77.8 47.8 75 48.5"/>
    </g>
    <path class="st29" d="M161.1,277c-1.4-6.9-7.2-11-13.6-12.9-4.2-1.2-8.6-1.7-12.9-2.1-.9.2-1.6,1-2.4,1.6-1.9,1.3-4.7,2.8-5.5,5-.1.3-.4.9-.8.6-2.3-3.5,5.3-6,6.7-8.4,0-.2,0-.3-.3-.3-1.6-.1-3.8,2-5.3,2.6-.6.2-1.5.3-1.6-.2,0,0,0,0,0,0-5.2.7-10.5,1-15.3-.7,0,1.3,0,2.5-.1,3.8-.2,1.5-1.3,2.6-2,3.9-.7,1.3-.8,2.9-.5,4.3.3,1.3,1.8,1.2,2.9,1.3,6.4.9,12.8,1.7,19.1,3.2,2.1.5,4.3,1.1,6.4,1.7,2,.6,4,1.4,6.1,1.8,1.2.2,2.4.4,3.6.5,3,.2,6,0,9-.4,1.7-.3,3.5-.5,5-1.3,1.6-.8,1.7-2.2,1.4-3.9Z"/>
    <path class="st29" d="M80.6,268.5c-.6.4-1.3.7-2,.9-2.5.6-5.1.7-7.6.9-.5,0-1,0-1.5,0,0,0,0,.2,0,.3,0,.1-.2.2-.4.2-.9,0-1.7-.4-2.5-.4-.1,0-.3,0-.4.1,0,.1,0,.2.2.3.9.8,2.1,1.2,2.7,2.3,0,.1.1.3.1.4,0,.2-.3.4-.5.4-.2,0-.4-.1-.6-.2-2.3-1.2-4.5-2.8-6.9-3.9-3-1.4-6.1-1.9-9.3-1.1-1.4.6-16.5,6.9-18.9,13.9-.7,2.1-.9,4.4.7,6.2.9,1,1.8,1.6,3.6,2.3,9.5,3.5,17.6,2.8,19.1,2.7.5,0,.8,0,.9-.1,4.2-.5,8.3-1.8,12.2-3.4,2-.8,3.9-1.7,5.9-2.6,1.8-.8,3.6-1.6,5-2.9,2.2-2.1,2.6-5.1,1.5-7.9-1-2.5-1-5.3-1.2-8.1Z"/>
    <path class="st23" d="M114.8,70.8c-.9-.5-2-1-2.5-1.9,0-.2-.2-.4-.1-.6,0,0,0,0,0,0-.4-.3-.8-.6-1.1-1,.4,3-.7,6.3.9,9.1,0,.2.2.4.4.5,1,.7,1.5-2.1,1.8-2.6.7-1.1,1.3-.2,1.3.7,0,.7-.4,1.3-.6,2-.3,1-.6,2.1-.3,3.2,0,0,0,.1,0,.2,0,0,.2,0,.3,0,1-.6,1.4-2.8,1.6-3.9.3-1.3.6-2.9-.2-4.1-.4-.6-1-1-1.6-1.3Z"/>
    <g>
      <path class="st6" d="M77.6,274.3v5.2c0,0-.2.3-.2.3l-.5.4-.4.4-.2.9v.8c0,0-.2.4-.2.4l-.2.3-.4.2-11.9,3.3h-.3c0,0-2.6-1.1-2.6-1.1,0,0-3.4.9-3.4.9,0,0-.1.5-.2.5,0,.3-.1.5-.2.8,0,.3-.2.5-.4.6s-.3.1-.4.1c-.8.2-1.7.2-2.5,0v1.1l-21.4-10.5v-1.8l3.2-1c-.9-.4-1.9-.8-2.8-1.2-.3-.1-4.5-2.2-6-6.8-.2-.7-.4-1.4-.5-2.1,0,0,0,0,0,0-.3-2.6.5-5.4,2-7.7.3-.4.5-.8.8-1.1.9-1.1,1.9-2.1,3.1-2.8,1.3-.8,2.8-.9,4.3-1l.3-2.1c0-.4-.1-.8-.1-1.3,0-2.6,1.7-4.8,3.9-4.8s.8,0,1.2.2l11.5,2.3c0-.3,0-.6,0-.8,0-.2,0-.4,0-.6,0-1.6-.2-3.1-.3-4.7,0,0,0,0,0,0,0,0-.2,0-.3-.1-.2,0-.5-.2-.7-.3-.6-.3-1.4-.2-2.1-.2-2,0-4-.4-5.9-.8-.9-.2-2-.6-2.9-.3-1,.4-2.2-.4-2.6-1.3-.5-1.3.2-3.1,1.7-3.4.3,0,.8,0,1.1,0,.9.5,2.1.4,3.1.4h.2c1.5,0,3,0,4.5.2,1,0,2,.2,2.9.5.7.2,1.4.3,2,.7.5.3.9.9,1,1.6,0,.3,0,.6,0,.9,0,.2,0,.3-.2.4,0,.1.1.3.1.4,0,.2.1.4.2.7,0,.2,0,.4,0,.7.1,2.1.2,4.1.3,6.2,0,.4,0,.9,0,1.3.5.6.8,1.2.9,2,0,.3,0,.5,0,.8s0,.2,0,.3l2.1-.4c0,0,.1-.2.2-.2,0,0,0,0,.2-.1,0,0,0,0,.1,0,.6-.4,1.6-.4,2.3-.4.8,0,1.6,0,2.4.1.3,0,.7.1.9.4.1,0,.2.2.3.3h.3l.3.2.4.2v.4c.1,0,.1.9.1.9,0,0,0,0,0,.1,0,.2,0,.5,0,.7v.9l6.4,1.9.6.5,1.9,1.9h.4c0,0,.9.3.9.3l.7.4.5.6.3.5v.3c.1,0,.3,12.8.3,12.8Z"/>
      <g>
        <g>
          <path class="st20" d="M53.6,287.3c0,.3,0,.6,0,.9,0,.2,0,.3.2.3.9,0,1.8,0,2.7-.2.2,0,.3,0,.3-.2.1-.2.2-.5.2-.8s.2-.6.3-.9c0,0-3.7.9-3.7.9Z"/>
          <path class="st78" d="M46,280.9c-4.5-1.9-9-3.9-13.4-5.8-.3-.2-5.8-2.8-6.5-9-.5-4.4,2.1-9.5,5.8-11.8,1.3-.8,2.8-.9,4.3-1,.3,0,.6.1.3.4-.6.5-1.1,1.1-1.7,1.6s-1.3,1-1.5,1.5c1.8.9,3.9,1.3,5.9,2,2,.7,3.9,1.3,5.9,2,.3,6.7.6,13.4.9,20.1Z"/>
          <g>
            <polygon class="st61" points="32.2 277.3 32.2 279.1 53.6 289.5 53.6 287.3 32.2 277.3"/>
            <polygon class="st15" points="36.6 275.9 32.2 277.3 53.6 287.3 60.7 285.5 36.6 275.9"/>
          </g>
          <path class="st65" d="M46,280.9c-3.5-1.5-6.9-3-10.4-4.5-1-.6-2.1-1.5-3.2-2.8-.4-.5-1.3-1.7-1.9-3.6-.7-2.3-.8-4.8-.2-7.2.1-.6.4-1.8,1.2-3.2.6-1.1,1.2-2.1,1.8-2.8,1.8.9,3.9,1.3,5.9,2,2,.7,3.9,1.3,5.9,2,.3,6.7.6,13.4.9,20.1Z"/>
          <path class="st14" d="M41.4,245.5l-1.2-.2c.4,0,.8,0,1.2.2Z"/>
          <line class="st2" x1="43.7" y1="264.6" x2="30.7" y2="260.2"/>
          <line class="st2" x1="44.1" y1="267" x2="30.3" y2="262.3"/>
          <line class="st2" x1="44.5" y1="269.2" x2="29.8" y2="264.2"/>
          <path class="st2" d="M44.4,271c-4.9-1.7-9.7-3.5-14.6-5.2"/>
          <path class="st2" d="M44,272.8c-4.7-1.7-9.5-3.5-14.2-5.2"/>
          <path class="st2" d="M44.3,274.6c-4.7-1.8-9.5-3.6-14.2-5.3"/>
          <path class="st1" d="M30.2,270.5c4.8,1.9,9.6,3.8,14.4,5.7"/>
          <path class="st2" d="M44.7,277.8c-4.8-2-9.6-4.1-14.5-6.1"/>
          <path class="st78" d="M30.2,262.9c-.6,2.3-.5,4.9.2,7.2.6,1.9,1.6,3.1,1.9,3.6,1,1.3,2.2,2.2,3.2,2.8-1-.4-2-.9-3-1.3-.3-.2-5.8-2.8-6.5-9-.5-4.4,2.1-9.5,5.8-11.8,1.3-.8,2.8-.9,4.3-1,.3,0,.6.1.3.4-.6.5-1.1,1.1-1.7,1.6-.4.4-1.3,1-1.5,1.5-.6.7-1.3,1.6-1.8,2.8-.7,1.4-1,2.7-1.2,3.2Z"/>
          <path class="st74" d="M34.3,255.8c-5.4,5.1-6.1,15.1.2,19.8.8.7,1.8,1.1,2.8,1.5-9.1-3-9.6-15.5-3-21.3h0Z"/>
          <path class="st15" d="M56.2,252c0,2.3-1.6,4.2-3.7,4.2s-.5,0-.8,0l-6.7,5.3-12.3-4.2v-.7l1.5-1.6,1.9-1.6.3-2.1c0-.4-.1-.8-.1-1.3,0-2.6,1.7-4.8,3.9-4.8l1.2.2,11.6,2.3h0c1.8.3,3.2,2.1,3.2,4.2Z"/>
          <path class="st32" d="M64.3,256.4h0c-.9.4-2.1.4-3.1.4-.8,0-1.7,0-2.4-.2,0,0,0-.2,0-.3.2.1.5.1.8.1,1.3.1,2.8.1,4.1,0,.3,0,.5-.1.7-.2,0,0,0,.2,0,.3Z"/>
          <path class="st65" d="M77.6,274.3v5.2c0,0-.2.3-.2.3l-.5.4-.4.4-.2.9v.8c0,0-.2.4-.2.4l-.2.3-.4.2-11.9,3.3h-.3c0,0-10.5-4.2-10.5-4.2l-.9.3-2.4.6c-.4,0-.8.1-1.2.1s-.5,0-.8,0h0c-.4,0-.7-.1-1-.3l-.5-.3-.9-27.8,11.1-1.9,8.4-1.4h.3l.3.2.4.2v.4c.1,0,.1,2.6.1,2.6l6.4,1.9.6.5,1.9,1.9h.4c0,0,.9.3.9.3l.7.4.5.6.3.5v.3c.1,0,.3,12.8.3,12.8Z"/>
          <path class="st72" d="M76.2,261.9l-13.3,2.8c-.4,0-.6.4-.6.8l.7,17c0,.4.4.7.8.6l12.6-3.6c.3,0,.6-.4.6-.8v-16.3c0-.4-.3-.7-.7-.6Z"/>
          <path class="st72" d="M70.5,257.3l-10.5,1.8c-.4,0-.8,0-1.1,0l-7.2-1.9c-.4,0-.3-.6,0-.7,3.9-.5,11.8-1.2,13-1.3s.2,0,.3,0l5.5,1.4c.4,0,.3.6,0,.7Z"/>
          <path class="st72" d="M61.7,283.9c-.2.2-.4.4-.8.4-1,0-2.2-.4-3.1-.7-1-.4-2-.8-3-1.1-1.1-.4-1.7-.6-2.2-.8-2.2-.7-2.5-.7-3-1.1-.5-.4-1.1-1.3-1.1-3.2l-.6-16.9c2.6.7,5.2,1.5,7.8,2.2.9.2,1.7.5,2.6.7.3,0,.7.2,1,.3.4.1.9.1,1.3.4.4.3.5.8.5,1.2.4,2.8.6,5.6.7,8.3.1,3,.5,6,.2,9.1,0,.4-.1.8-.4,1.1Z"/>
          <g>
            <path class="st28" d="M46.8,278c.6-.3,1.2-.5,1.7-.8,4.1,1.7,8.2,3.4,12.4,5.2-.7,0-1.9.1-3.2,0-1-.2-1.7-.4-2.1-.6-3.1-1.1-8.2-3.5-8.8-3.7Z"/>
            <path class="st28" d="M46.7,274.7c.6-.2,1.2-.4,1.8-.6,4.1,1.6,8.1,3.1,12.2,4.7-.9.1-2.2.2-3.8,0-1.5-.2-2.5-.7-3.9-1.3-2.6-1.1-4.5-2-6.3-2.8Z"/>
            <path class="st28" d="M46.5,271.3c.6-.2,1.2-.4,1.8-.6,4.1,1.5,8.2,3,12.3,4.5-.8,0-2,.2-3.3,0-1.6-.2-2.8-.6-4.4-1.3-1.8-.7-4-1.6-6.4-2.6Z"/>
            <path class="st28" d="M46.1,268.1c.7-.2,1.4-.4,2-.6,4,1.4,8.1,2.9,12.1,4.3-.7.1-1.8.3-3,.2-1.6-.2-2.8-.7-3.4-1-1.7-.7-4.1-1.7-7.8-2.9Z"/>
            <path class="st28" d="M45.7,264.6c.8-.1,1.6-.3,2.3-.4,4.1,1.3,8.2,2.6,12.3,3.9-.7.1-1.8.2-3,0-2-.2-3.4-.7-4.6-1.2-1.6-.6-3.9-1.5-7-2.4Z"/>
            <path class="st28" d="M45.7,261.3c.8.1,1.7-.1,2.5,0,4.1,1,8,2.4,12.1,3.4-.6.1-1.7.2-2.9.1-2.1-.1-3.4-.7-6.2-1.7-1.2-.4-3.1-1.1-5.5-1.9Z"/>
          </g>
          <g>
            <path class="st5" d="M60.2,264.9s-3.1,0-3.1,0c-1.4-.1-11.1-3.4-11.2-3.4"/>
            <path class="st5" d="M60.2,268.3s-3.1,0-3.1,0c-1.4-.1-11.1-3.6-11.2-3.6"/>
            <path class="st5" d="M60.2,272s-3.1,0-3.1,0c-1.4-.1-11.1-3.8-11.2-3.9"/>
            <path class="st5" d="M60.5,275.5s-3.1,0-3.1,0c-1.4-.1-11.1-4-11.2-4"/>
            <path class="st5" d="M60.5,279s-3.1,0-3.1,0c-1.4-.1-10.9-4.1-11-4.2"/>
            <path class="st5" d="M60.8,282.6s-3.1,0-3.1,0c-1.4-.1-10.8-4.5-10.8-4.5"/>
          </g>
          <path class="st74" d="M46.4,256.9c0,6.4.5,14.1.8,21.7,0,1.6.2,3.3.2,4.8-.4,0-.7-.1-1-.3l-.5-.3v-1.2c0-1-.1-2-.1-3.1,0-1.4,0-2.9-.1-4.3,0-1.6-.1-3.3-.2-4.9l-.2-5v-4.3c-.2-1-.2-2-.2-3.1s-.3-1.5.2-1.9.8-.2,1.1-.3c5.9-1,11.8-2,17.7-3-2.9.9-5.8,1.8-8.8,2.5s-1.3.3-2,.4c-1.7.3-3.4.6-5.1.9-.4,0-.9,0-1.2.3s-.5.5-.5.9Z"/>
          <g>
            <path d="M48.4,256.7s0,0,0-.2c0-.2-.3-.5-.6-.5-.3,0-.5.2-.6.4-.1.2-.1.4,0,.6,0,.2.3.4.5.5,0,0,0,0,0,0,0,0,0,0,0,0,.2-.2.3-.4.5-.5s0,0,.1-.1c0,0,0,0,0-.1Z"/>
            <path class="st34" d="M48,256.2c-.2,0-.5,0-.6.2-.2.3-.2.6,0,.9.3.4,1,.4,1.1-.2,0-.3,0-.6-.2-.8,0,0-.2-.1-.3-.1Z"/>
            <path class="st65" d="M47.9,256.6c-.1,0-.2,0-.3.1-.2.2,0,.5.2.5.3,0,.4-.4.2-.6,0,0,0,0-.1,0Z"/>
          </g>
          <g>
            <path d="M65.8,253.8s0,0,0-.1c0-.3-.2-.5-.4-.7-.2-.1-.5,0-.7.1-.2.1-.3.4-.2.6,0,.3.2.4.3.6,0,0,0,0,0,0,0,0,0,0,0,0,.2-.1.4-.2.6-.3s.1,0,.2,0c0,0,0,0,.1,0Z"/>
            <path class="st34" d="M65.6,253.3c-.2-.1-.5-.1-.7,0-.3.2-.4.5-.3.8.2.5.8.7,1.1.2.2-.2.2-.6,0-.8,0,0-.1-.2-.2-.2Z"/>
            <path class="st65" d="M65.4,253.6c0,0-.2,0-.3,0-.2.1-.2.5,0,.6.3.1.5-.3.4-.5,0,0,0,0,0,0Z"/>
          </g>
          <path class="st72" d="M60,262.1l-8.1-2.2c-.3,0-.5-.3-.6-.5l-.5-1.3c-.1-.3.2-.6.5-.5l6.3,1.8c.2,0,.3.1.4.3l2.1,2.2c.1.1,0,.3-.2.3Z"/>
          <path class="st61" d="M62.3,252.1l-1.8-.6-16.9,3c-.3,0-.6.4-.6.7.5,9,.9,18,1.4,27l1.5.7-.9-27c0-.4.3-.8.7-.9l16.5-2.8Z"/>
          <path class="st33" d="M70,268.2c.5-.2,1-.2,1.5,0,1,.5,1.5,1.4,1.6,2.4.3,2.2-1,5-3.5,5-.3,0-.6,0-.9-.1-.5-.2-.9-.6-1.1-1-.8-1.3-.5-3.4.3-4.6.5-.7,1.2-1.5,2.1-1.8Z"/>
          <path class="st18" d="M70,268.8c.4-.1.8-.1,1.2,0,.8.4,1.2,1.2,1.3,2,.2,1.8-.9,4.2-2.9,4.2-.3,0-.5,0-.7-.1-.4-.2-.7-.5-.9-.8-.7-1.1-.4-2.8.2-3.8.4-.6,1-1.3,1.8-1.5Z"/>
          <g>
            <path d="M49.4,282s0,0,0-.1c-.2-.2-.5-.3-.7-.2-.2,0-.4.4-.4.6,0,.2,0,.4.2.6.2.2.4.2.6.2,0,0,0,0,0,0,0,0,0,0,0,0,0-.2.1-.5.2-.7s0-.1,0-.2c0,0,0-.1,0-.2Z"/>
            <path class="st34" d="M48.9,281.8c-.2,0-.4.2-.5.5,0,.3,0,.7.4.8.4.2,1,0,.9-.6,0-.3-.2-.5-.5-.6,0,0-.2,0-.3,0Z"/>
            <path class="st65" d="M49,282.1c-.1,0-.2.1-.2.2,0,.3.2.5.4.4.3-.1.2-.5,0-.6,0,0,0,0-.1,0Z"/>
          </g>
          <g>
            <path class="st20" d="M64.2,256.1c0,0,0,.2,0,.3h0c0,.5-.7.7-1.1.8-.4,0-.9.1-1.3.2-.6,0-1.2,0-1.8,0-.3,0-.7,0-1-.2,0,0-.1-.1-.2-.2,0,0,0-.1,0-.2s0,0,0,0h0c0-.2,0-.2,0-.3h0c0-.2,0-.5,0-.5,0,0,.3,0,.4,0h1.9c.4,0,.8,0,1.3,0,.6,0,1.2,0,1.9-.1,0,0,0,0,.1,0,0,0,0,.3,0,.3v.2Z"/>
            <g>
              <path class="st15" d="M64.5,255.6c-.7.6-2,.5-2.8.5,0,0-.8,0-3-.2,0,0-.3,0-.5-.2-.1-.1-.1-.3-.1-.3,0-.2-.2-1.4-.1-3s.3-.6.4-.8c0,0,0,0,.2-.1,0,0,0,0,.1,0,.6-.4,1.6-.4,2.3-.4.8,0,1.6,0,2.4.1.3,0,.7.1.9.4.1,0,.2.2.3.4.2.5,0,1,0,1.5,0,.5,0,.9,0,1.4,0,.3,0,.7-.2.9Z"/>
              <path class="st76" d="M64.3,251.5s0,0,0,0c0,0,0,0,0,0-.6.4-1.3.4-2,.5-.6,0-1.1.1-1.7,0-.4,0-.7,0-1.1,0-.3,0-.7,0-.9-.3,0,0-.1,0-.2-.2,0,0,.2-.2.3-.2.6-.4,1.6-.4,2.3-.4.8,0,1.6,0,2.4.1.3,0,.7.1.9.4Z"/>
            </g>
          </g>
        </g>
        <g>
          <path class="st17" d="M45.1,253.4c0,.2,0,1,0,1,.3.3,1.1.4,1.7.4.6,0,1.8,0,2.5-.1s1.1-.3,1.1-.4v-1.1c-.2,0-.2,0-.3,0-.7,0-1.5,0-2.2,0-.8,0-1.6.2-2.4.2,0,0-.1,0-.2,0,0,0,0,0,0,0Z"/>
          <path class="st67" d="M46.2,252.9c-.4,0-.8,0-1,.3-.3.3.4.4.6.4.7.1,1.4.1,2.1.1.7,0,1.6,0,2.2-.4s.2-.1.3-.2c.2-.5-1.4-.4-1.6-.4-.6,0-1.3,0-1.9,0s-.4,0-.5,0Z"/>
          <polygon class="st71" points="46.8 250.6 48.7 251.1 48.9 251.2 48.9 251.3 49.1 253.4 49 253.5 48.9 253.6 48.6 253.6 48.3 253.6 46.2 253 46.2 250.8 46.3 250.7 46.4 250.6 46.7 250.6 46.8 250.6"/>
        </g>
        <path class="st15" d="M54.4,240c0-.1.1-.2.2-.4,0-.3,0-.6,0-1-.1-.6-.5-1.2-1-1.6-.6-.4-1.3-.5-2-.7-1-.2-1.9-.4-2.9-.5-1.5-.1-3-.2-4.5-.2s-.2,0-.2,0c-1,0-2.2.2-3.1-.4-.3-.2-.8-.1-1.1-.1-1.5.2-2.2,2.1-1.7,3.4.4,1,1.5,1.7,2.6,1.3.9-.3,2,0,2.9.3,1.9.4,3.9.8,5.9.8.7,0,1.4,0,2,.2.2.1.4.2.7.3s.2.1.3.1.3-.2.4-.3c.4-.4.9-.7,1.3-1.1.1-.1.3-.2.4-.4Z"/>
        <path class="st61" d="M52.7,241.5c.2,0,.2-.1.5-.4.5-.5.7-.5.8-.7.6-.7.5-2.5-.4-2.8-.5-.2-1.1.1-1.2.2-.9.6-1.2,2-.8,2.9.2.4.6,1,1,.9Z"/>
        <polygon class="st21" points="52.2 253 52.2 251.3 52.8 250.8 55.3 250.8 55.6 250.8 56.1 251.2 56.2 253 55.1 253.2 53.6 253.3 52.2 253"/>
        <path class="st72" d="M53.5,251.6h1.8c0-.1.8-.4.8-.4l-.5-.4h-2.8s-.6.5-.6.5c.4,0,.9.2,1.3.3Z"/>
        <path class="st72" d="M53,251.1c-.2-.2-.1-.6-.1-.6,0-.8,0-1.7,0-2.5,0-.9-.1-1.7-.1-2.6,0-.2,0-.5,0-.7,0-.2,0-.4,0-.6,0-.9-.1-1.8-.2-2.7,0-1.1,0-1.1-.1-1.3,0,0,0-.3,0-.5,0-.3,0-.4,0-.6,0-.2.3-.5.6-.6.4,0,.8.4,1.1.8.5.8.8,1.6.8,2.5.1,2.1.2,4.1.3,6.2,0,.6,0,1.2,0,1.7,0,.4,0,.8,0,1.2,0,.4-.4.5-.7.5-.3,0-.6,0-.8,0-.1,0-.3,0-.5,0,0,0-.1,0-.2-.1Z"/>
        <path class="st21" d="M55.2,249.6c0-.6,0-1.2,0-1.7,0-2.1-.2-4.1-.3-6.2,0-.9-.3-1.8-.8-2.5-.1-.2-.3-.4-.5-.6.2.1.2.6.3.8,0,.4.2.7.2,1.1.2,1.5.3,3,.4,4.5.1,2,.2,4.1.3,6.1,0,.4.5-.1.5-.3,0-.4,0-.8,0-1.2Z"/>
        <path class="st65" d="M53,244.8c0-.5,0-1,0-1.5,0-1.5,0-2.9-.5-4.3,0,.3,0,.5,0,.8.2,3.1.4,6.2.6,9.3s0,.8,0,1.3c0,.3,0,.6.1.8,0,0,.2.2.3.2.2,0,.1-.2.1-.3,0-1.1-.1-2.1-.2-3.2,0-1-.2-2-.3-3.1Z"/>
      </g>
    </g>
    <path class="st22" d="M53.7,226.7c.3,1.4.9,2.9.8,4.4-.1,2-1.5,2.4-3.3,2.5-.6,0-1.1,0-1.6,0-2.2,0,.5-2.1-.4-2.8-1.2-.9-2.1,1-2.4,2-1.1,3.9-.8,9.5,2.6,12.2.5.4,1,.7,1.4,1.2,1.2,1.5-.5,4.2-1.8,5.1-2.4,1.6-6.3-.7-7.6-2.8-.2-.3-.8-1.4-1.2-1-.3.3.1,1.4.3,1.7.5.9,1.5,2.3,0,2.8-.2,0-.5.1-.7.2-2.3.2-5.2-1.6-6.3-3.4-.4-.7-1.5-4.3-2.8-3.7-.6.3,0,1.1-.6,1.4-1.2.7-3.5-5-3.8-5.8-.9-2.4-1.5-5.1-1.3-7.7.3-4.5,2.6-8.9,5.6-12.1,1.1-1.1,1.2-2.1,1.2-3.6,0-1.8,0-3.5,0-5.3,0-1.3,0-11.9,1.7-11.7,4.3.6,8.6,3.2,11.7,6.4.7.6.4,1.3.1,2.1-.7,3.7-.6,7.6-.4,11.3.5,2.3-.9,1-1.6,2.2-.4,1.4,1.2,1.4,2.1,1.3,1.4,0,2.8.4,4.2.8,1.5.6,3.4.9,4.2,2.4Z"/>
    <path class="st4" d="M53.7,226.7c.3,1.4.9,2.9.8,4.4-.1,2-1.5,2.4-3.3,2.5-.6,0-1.1,0-1.6,0-2.2,0,.5-2.1-.4-2.8-1.2-.9-2.1,1-2.4,2-1.1,3.9-.8,9.5,2.6,12.2.5.4,1,.7,1.4,1.2,1.2,1.5-.5,4.2-1.8,5.1-2.4,1.6-6.3-.7-7.6-2.8-.2-.3-.8-1.4-1.2-1-.3.3.1,1.4.3,1.7.5.9,1.5,2.3,0,2.8-.2,0-.5.1-.7.2-2.3.2-5.2-1.6-6.3-3.4-.4-.7-1.5-4.3-2.8-3.7-.6.3,0,1.1-.6,1.4-1.2.7-3.5-5-3.8-5.8-.9-2.4-1.5-5.1-1.3-7.7.3-4.5,2.6-8.9,5.6-12.1,1.1-1.1,1.2-2.1,1.2-3.6,0-1.8,0-3.5,0-5.3,0-1.3,0-11.9,1.7-11.7,4.3.6,8.6,3.2,11.7,6.4.7.6.4,1.3.1,2.1-.7,3.7-.6,7.6-.4,11.3.5,2.3-.9,1-1.6,2.2-.4,1.4,1.2,1.4,2.1,1.3,1.4,0,2.8.4,4.2.8,1.5.6,3.4.9,4.2,2.4Z"/>
  </g>
  <g>
    <g>
      <path class="st27" d="M209,122.7c-7.5,0-13.4-1.7-17.1-2.9,0,0-.6-.2-.6-.3l-.4-16.4h4.2c.7,5.9,1.6,8.4,3.8,11.2,1.4,1.8,4.3,4.5,9.5,4.5s10-3.4,10-8.1-4.5-7.7-11.1-10.8c-9-4.3-15.6-7.2-15.6-16.1s7.5-14.5,17.2-14.5,10.4.7,17.2,3.6l.7,14.1h-4.1c-.5-4.9-1.6-7.8-3.8-10.1-2.3-2.3-5.6-3.9-9.1-3.9-5.5,0-8,3.8-8,7,0,4.8,4.5,7.1,11.2,10.1,7.2,3.2,15.8,7.2,15.8,17.3s-7.9,15.4-19.9,15.4Z"/>
      <path class="st27" d="M276.2,89.9c-.6-4.3-2.4-15.6-11-15.6s-3,1.7-3,4.2v34.1c0,4.5,0,5,3.9,5h3.7v3.7h-26.9v-3.7h3.9c3.9,0,3.9-.6,3.9-5v-34.8c0-1.8,0-3.6-3-3.6-8.7,0-10.7,11.8-11.1,15.6h-3.6l1-19.3h44.8l1,19.3h-3.8Z"/>
      <path class="st27" d="M320,121.4l-8-19.3c-1.3-3.2-2.5-4.1-7-4.1h-3.1v14.7c0,4.8.2,5,3.9,5h3.4v3.7h-25.7v-3.7h3.2c3.6,0,3.9-.3,3.9-5v-33.4c0-4.8-.3-5-3.9-5h-3.2v-3.7h25.7c6,0,9.2.1,12.8,1.6,4.1,1.7,7.6,5.8,7.6,11.4s-.3,10.8-12.7,12.9h0c2.3.8,4.8,1.7,8.1,8.7l4.1,8.7c1.7,3.7,2.2,3.8,6.2,3.8v3.7h-15.3ZM306.4,74.3h-1.6c-1.9,0-2.8.7-2.8,3.8v16.2h3.3c6.1,0,11.9,0,11.9-10.4s-6.5-9.6-10.8-9.6Z"/>
      <path class="st27" d="M339,121.4v-3.7h3.6c3.6,0,3.9-.3,3.9-5v-33.4c0-4.8-.3-5-3.9-5h-3.6v-3.7h26.6v3.7h-3.7c-3.6,0-3.9.3-3.9,5v33.4c0,4.8.3,5,3.9,5h3.7v3.7h-26.6Z"/>
      <path class="st27" d="M395.2,122.7c-16,0-24.2-11.6-24.2-25.5s3.5-27.8,26.2-27.8,12.5,1,17.2,3.9l1,15h-4.2c-.4-3-2.1-15.1-12.7-15.1s-14.3,16.9-14.3,22.9.6,21.6,13.7,21.6,12.7-4.5,14.7-13.4h4.3c-.7,6.2-6,18.6-21.5,18.6Z"/>
      <path class="st27" d="M450.6,121.4v-3.7h1.7c1.7,0,5,0,5-1.9s-.2-1-.9-2.1l-10.5-16.9-5.9,6.2v9.8c0,4.5,0,5,3.9,5h3.3v3.7h-25.8v-3.7h3.2c3.6,0,4-.3,4-5v-33.4c0-4.8-.3-5-4-5h-3.2v-3.7h25.8v3.7h-3.3c-3.6,0-3.9.3-3.9,5v18.2l15.6-16.2c1.9-1.9,2.2-3,2.2-4,0-2.8-3.4-3-5-3h-1.2v-3.7h22.9v3.7c-5.1,0-7.2.3-14.3,7.6l-6.4,6.7,14.7,23.9c1.5,2.5,2.8,4.4,5.1,4.8,2,.3,2.2.4,3.5.4v3.7h-26.6Z"/>
      <path class="st27" d="M523.9,121.4h-44.2v-3.7h3.5c3.6,0,3.9-.3,3.9-5v-33.4c0-4.8-.3-5-3.9-5h-3.5v-3.7h28.5v3.7h-5.8c-3.6,0-3.9.3-3.9,5v34.5c0,2.6.2,3.9,3,3.9h5.4c5.4,0,11.5,0,14.6-15.6h3.6l-1.2,19.3Z"/>
      <path class="st27" d="M558.8,121.4v-3.7h3.2c1.3,0,4.1,0,4.1-2.1s-.6-2.3-1-3.3l-2.4-5.8h-20l-1.1,2.7c-.3.5-1,2.8-1,4.2,0,3.9,4.5,4.3,5.9,4.3h1.3v3.7h-19.1v-3.7c4.1,0,5.6-1.4,8.1-7.2l17.8-41.2h5l18.1,44.4c1.6,3.8,2.6,4,5.3,4h1.3v3.7h-25.3ZM553.1,82.7l-8.7,19.8h16.7l-8.1-19.8Z"/>
      <path class="st27" d="M634.9,84.6v37.7h-4.3l-30.7-40.5h-.1v25.7c0,4.6,0,6.7,1.7,8.5,1.2,1.3,3.6,1.8,4.8,1.8h2.9v3.7h-20.9v-3.7c7.1,0,7.2-4.7,7.2-10.3v-31.5c-1.4-1-2.2-1.7-5.9-1.7h-1.4v-3.7h16.7l25.6,33.6h.1v-19.6c0-4.8,0-10.3-6.7-10.3h-3v-3.7h20.9v3.7c-6.9.4-6.9,3.8-6.9,10.3Z"/>
      <path class="st27" d="M683.4,119.1c-4.1,2-9,2.3-18,2.3h-20.5v-3.7h3.2c3.6,0,3.9-.3,3.9-5v-33.4c0-4.8-.3-5-3.9-5h-3.2v-3.7h22.7c7.5,0,14.3,0,20.4,5,6.6,5.4,8.5,13.2,8.5,20.5s-3.9,18.7-13.1,23ZM669.2,74.3h-2.3c-2.4,0-3.6.1-3.6,4.3v35.3c0,1.9,0,3.9,2.6,3.9h1.5c8.5,0,15.9-1.7,15.9-21.9s-4.5-21.5-14.2-21.5Z"/>
    </g>
    <g>
      <path class="st66" d="M205.5,142.2c-1.3.5-2.6.5-4.9.5h-2.3v5.1c0,1.7,0,1.9,1.4,1.9h2.1v1.4h-10.5v-1.4h1.2c1.4,0,1.5-.1,1.5-1.9v-12.5c0-1.8-.1-1.9-1.5-1.9h-1.2v-1.4h9.8c1.1,0,2.8,0,4.5.7,2.3,1,3,3.1,3,4.6,0,2.7-1.8,4.2-3.3,4.8ZM200.2,133.5h-.5c-1.1,0-1.3.4-1.3,1.2v6.7h1.3c1.6,0,4.5,0,4.5-4s-2.8-3.9-4-3.9Z"/>
      <path class="st66" d="M226.6,151.1h-16.5v-1.4h1.3c1.3,0,1.5-.1,1.5-1.9v-12.5c0-1.8-.1-1.9-1.5-1.9h-1.3v-1.4h10.6v1.4h-2.2c-1.4,0-1.4.1-1.4,1.9v12.9c0,1,0,1.5,1.1,1.5h2c2,0,4.3,0,5.5-5.8h1.3l-.5,7.2Z"/>
      <path class="st66" d="M244.5,136.9v6.7c0,2.5,0,3.8-.8,5.1-1.6,2.8-5.2,2.8-6.5,2.8-6.6,0-7-3.2-7-6.7v-9.5c0-1.8-.1-1.9-1.5-1.9h-1.2v-1.4h9.8v1.4h-1.5c-1.3,0-1.4.1-1.4,1.9v9.1c0,2,0,2.5.3,3.4.6,1.9,2.6,2.1,3.5,2.1,1.4,0,3.3-.5,4-2.1.5-1.1.5-2.6.5-3.8v-7.2c0-1.1,0-2.1-.7-2.7s-1.3-.7-1.9-.7h-.4v-1.4h7.1v1.4c-2.5.1-2.5,1.8-2.5,3.4Z"/>
      <path class="st66" d="M264.5,151.1v-1.4h1.2c1.4,0,1.4-.2,1.4-1.9v-14.8h0l-6.4,18h-1.1l-6.8-18h0v12.8c0,1.7,0,2.5.6,3.2.4.5,1.3.7,1.8.7h.4v1.4h-7.1v-1.4c2.6,0,2.7-1.8,2.7-3.8v-10.5c0-1.8-.1-1.9-1.5-1.9h-1.2v-1.4h8.3l4.7,12.4,4.4-12.4h8.1v1.4h-1.2c-1.3,0-1.4.1-1.4,1.9v12.5c0,1.7,0,1.9,1.4,1.9h1.2v1.4h-9.4Z"/>
      <path class="st66" d="M291.2,150.3c-1.9.8-3,.8-5.4.8h-10.4v-1.4h1.2c1.3,0,1.5-.1,1.5-1.9v-12.5c0-1.8-.1-1.9-1.5-1.9h-1.2v-1.4h9.9c2.2,0,3.5,0,5,.7,1.4.6,2.6,1.9,2.6,3.8,0,3.9-4.4,4.5-5.4,4.7h0c1.7.2,6.5.5,6.5,4.8s-1.1,3.6-2.7,4.2ZM284.2,133.5h-.6c-1.2,0-1.2.5-1.2,1.4v5.8h1.9c1.6,0,4.3,0,4.3-3.8s-2.6-3.4-4.3-3.4ZM284.1,142.1h-1.7v6.1c0,1.4.2,1.5,1.4,1.5h1.5c2.6,0,4-1.1,4-3.7,0-3.9-3.1-3.9-5.2-3.9Z"/>
      <path class="st66" d="M295.9,151.1v-1.4h1.4c1.4,0,1.5-.1,1.5-1.9v-12.5c0-1.8-.1-1.9-1.5-1.9h-1.4v-1.4h9.9v1.4h-1.4c-1.3,0-1.4.1-1.4,1.9v12.5c0,1.8.1,1.9,1.4,1.9h1.4v1.4h-9.9Z"/>
      <path class="st66" d="M325,137.3v14.1h-1.6l-11.5-15.1h0v9.6c0,1.7,0,2.5.6,3.2.4.5,1.3.7,1.8.7h1.1v1.4h-7.8v-1.4c2.6,0,2.7-1.7,2.7-3.8v-11.8c-.5-.4-.8-.6-2.2-.6h-.5v-1.4h6.2l9.6,12.5h0v-7.3c0-1.8,0-3.9-2.5-3.9h-1.1v-1.4h7.8v1.4c-2.6.2-2.6,1.4-2.6,3.9Z"/>
      <path class="st66" d="M348.4,143.6c-1.4,0-1.4.1-1.4,1.8v3.9c-2.6,1.9-5.7,2.2-7.7,2.2s-5.3-.6-7.2-2.4c-2.1-2.1-2.9-4.8-2.9-7.2,0-3.9,2.2-10.3,10.4-10.3s4.5.4,6.5,1.4l.5,5.5h-1.5c-.6-3.5-2.8-5.5-5.4-5.5-4.6,0-5.6,4.8-5.6,8.4s.2,8.7,5.7,8.7,2-.3,2.9-.8v-3.9c0-1.7,0-1.8-1.3-1.8h-1.6v-1.5h9.7v1.5h-1Z"/>
      <path class="st66" d="M351.9,155.3l-.5-.9c2.8-1.6,2.9-2.9,2.9-3s-.1-.2-.2-.2-.2,0-.3,0c-.1,0-.3,0-.6,0-1,0-1.9-.8-1.9-2.1s1-2.2,2.2-2.2,2.5,1.6,2.5,3.1c0,3.2-3.2,4.8-4.1,5.3Z"/>
      <path class="st66" d="M377.4,151.1v-1.4h1.2c1.4,0,1.5-.1,1.5-1.9v-5.8h-7v5.8c0,1.8.1,1.9,1.5,1.9h1.1v1.4h-9.5v-1.4h1.2c1.4,0,1.5-.1,1.5-1.9v-12.5c0-1.8-.1-1.9-1.5-1.9h-1.2v-1.4h9.5v1.4h-1.1c-1.4,0-1.5.1-1.5,1.9v5h7v-5c0-1.8-.1-1.9-1.5-1.9h-1.2v-1.4h9.5v1.4h-1.2c-1.3,0-1.4.1-1.4,1.9v12.5c0,1.8.1,1.9,1.4,1.9h1.2v1.4h-9.5Z"/>
      <path class="st66" d="M404.8,137.4l-5.8,14.2h-1.5l-6.7-16.1c-.6-1.5-1.2-2-2.6-2v-1.4h9.3v1.4h-.6c-.6,0-2,0-2,.8s0,.4.4,1.2l4.3,10.5,3.7-9.1c.4-.9.4-1.3.4-1.6,0-1.7-1.6-1.7-2.4-1.7v-1.4h7v1.4c-1.9,0-2.3.8-3.5,3.9Z"/>
      <path class="st66" d="M416.9,151.1v-1.4h1.2c.5,0,1.5,0,1.5-.8s-.2-.9-.4-1.2l-.9-2.2h-7.5l-.4,1c-.1.2-.4,1.1-.4,1.6,0,1.5,1.7,1.6,2.2,1.6h.5v1.4h-7.1v-1.4c1.5,0,2.1-.5,3-2.7l6.6-15.4h1.9l6.8,16.6c.6,1.4,1,1.5,2,1.5h.5v1.4h-9.4ZM414.8,136.6l-3.2,7.4h6.2l-3-7.4Z"/>
      <path class="st66" d="M436.3,151.5c-6,0-9.1-4.3-9.1-9.5s1.3-10.4,9.8-10.4,4.7.4,6.4,1.4l.4,5.6h-1.6c-.2-1.1-.8-5.7-4.8-5.7s-5.3,6.3-5.3,8.5.2,8.1,5.1,8.1,4.8-1.7,5.5-5h1.6c-.3,2.3-2.2,6.9-8,6.9Z"/>
      <path class="st66" d="M470.2,151.5c-1.6,0-3.1-.7-4.3-1.9-1.2,1.1-3.3,1.9-5.7,1.9-5.4,0-6.3-3.7-6.3-5.4,0-2.5,1.4-4.4,5.5-5.9-.9-1.9-1.1-2.9-1.1-3.9,0-2.4,1.6-4.8,5.5-4.8s4.7,1.5,4.7,3.4c0,3.3-3.8,4.5-5,4.9,1.3,2.3,2.7,4.6,4.4,6.7.7-.8,1.9-2.5,1.9-3.7s-1.2-1.1-1.9-1.1h-.4v-1.3h7v1.3c-1.4,0-2.1.2-2.9,1.5-.1.2-.7,1.2-.9,1.4-.9,1.4-1.4,2.1-2.1,2.8.8.8,1.8,1.5,2.7,1.5s1.8-.8,1.9-2.4h1.2c0,2.8-1.4,5-4.3,5ZM459.9,141.3c-1.5.7-2.1,2-2.1,3.4,0,2.6,2.1,5,4.2,5s1.8-.2,2.9-1c-1.8-1.8-4-5.4-5.1-7.5ZM463.6,132.9c-1.1,0-2.1.8-2.1,2.3s.6,2.5,1.2,3.6c.8-.4,2.9-1.3,2.9-3.7s-.9-2.2-2-2.2Z"/>
      <path class="st66" d="M500.2,151.1h-16.7v-1.4h1.2c1.4,0,1.4-.1,1.4-1.9v-12.5c0-1.8,0-1.9-1.4-1.9h-1.2v-1.4h16l.4,6.5h-1.4c-.7-4.7-2.5-5.1-5.7-5.1h-1.1c-1,0-1.4.1-1.4,1.3v5.8h.6c2.2,0,3.2-1.1,3.2-3.5h1.4v8.6h-1.4c0-3.1-1.1-3.8-3.2-3.8h-.6v6c0,1.4.2,1.7,1.2,1.7h1.6c1.6,0,3.6,0,4.9-2.3.4-.6.8-1.7,1-3.4h1.4l-.3,7Z"/>
      <path class="st66" d="M519.2,151.1h-16.5v-1.4h1.3c1.3,0,1.5-.1,1.5-1.9v-12.5c0-1.8-.1-1.9-1.5-1.9h-1.3v-1.4h10.6v1.4h-2.2c-1.4,0-1.4.1-1.4,1.9v12.9c0,1,0,1.5,1.1,1.5h2c2,0,4.3,0,5.5-5.8h1.3l-.5,7.2Z"/>
      <path class="st66" d="M537.6,151.1h-16.7v-1.4h1.2c1.4,0,1.4-.1,1.4-1.9v-12.5c0-1.8,0-1.9-1.4-1.9h-1.2v-1.4h16l.4,6.5h-1.4c-.7-4.7-2.5-5.1-5.7-5.1h-1.1c-1,0-1.4.1-1.4,1.3v5.8h.6c2.2,0,3.2-1.1,3.2-3.5h1.4v8.6h-1.4c0-3.1-1.1-3.8-3.2-3.8h-.6v6c0,1.4.2,1.7,1.2,1.7h1.6c1.6,0,3.6,0,4.9-2.3.4-.6.8-1.7,1-3.4h1.4l-.3,7Z"/>
      <path class="st66" d="M549.8,151.5c-6,0-9.1-4.3-9.1-9.5s1.3-10.4,9.8-10.4,4.7.4,6.4,1.4l.4,5.6h-1.6c-.2-1.1-.8-5.7-4.8-5.7s-5.3,6.3-5.3,8.5.2,8.1,5.1,8.1,4.8-1.7,5.5-5h1.6c-.3,2.3-2.2,6.9-8,6.9Z"/>
      <path class="st66" d="M575.6,139.3c-.2-1.6-.9-5.8-4.1-5.8s-1.1.6-1.1,1.6v12.8c0,1.7,0,1.9,1.5,1.9h1.4v1.4h-10.1v-1.4h1.5c1.5,0,1.5-.2,1.5-1.9v-13c0-.7,0-1.3-1.1-1.3-3.2,0-4,4.4-4.1,5.8h-1.4l.4-7.2h16.7l.4,7.2h-1.4Z"/>
      <path class="st66" d="M591.9,151.1l-3-7.2c-.5-1.2-.9-1.5-2.6-1.5h-1.2v5.5c0,1.8,0,1.9,1.4,1.9h1.3v1.4h-9.6v-1.4h1.2c1.4,0,1.5-.1,1.5-1.9v-12.5c0-1.8-.1-1.9-1.5-1.9h-1.2v-1.4h9.6c2.2,0,3.4,0,4.8.6,1.5.6,2.8,2.2,2.8,4.2s-.1,4-4.8,4.8h0c.8.3,1.8.6,3,3.3l1.5,3.3c.6,1.4.8,1.4,2.3,1.4v1.4h-5.7ZM586.8,133.5h-.6c-.7,0-1.1.3-1.1,1.4v6h1.2c2.3,0,4.4,0,4.4-3.9s-2.4-3.6-4-3.6Z"/>
      <path class="st66" d="M599,151.1v-1.4h1.4c1.4,0,1.5-.1,1.5-1.9v-12.5c0-1.8-.1-1.9-1.5-1.9h-1.4v-1.4h9.9v1.4h-1.4c-1.3,0-1.4.1-1.4,1.9v12.5c0,1.8.1,1.9,1.4,1.9h1.4v1.4h-9.9Z"/>
      <path class="st66" d="M620,151.5c-6,0-9.1-4.3-9.1-9.5s1.3-10.4,9.8-10.4,4.7.4,6.4,1.4l.4,5.6h-1.6c-.2-1.1-.8-5.7-4.8-5.7s-5.3,6.3-5.3,8.5.2,8.1,5.1,8.1,4.8-1.7,5.5-5h1.6c-.3,2.3-2.2,6.9-8,6.9Z"/>
      <path class="st66" d="M637.4,151.1v-1.4h1.4c1.4,0,1.5-.1,1.5-1.9v-12.5c0-1.8-.1-1.9-1.5-1.9h-1.4v-1.4h9.9v1.4h-1.4c-1.3,0-1.4.1-1.4,1.9v12.5c0,1.8.1,1.9,1.4,1.9h1.4v1.4h-9.9Z"/>
      <path class="st66" d="M666.6,137.3v14.1h-1.6l-11.5-15.1h0v9.6c0,1.7,0,2.5.6,3.2.4.5,1.3.7,1.8.7h1.1v1.4h-7.8v-1.4c2.6,0,2.7-1.7,2.7-3.8v-11.8c-.5-.4-.8-.6-2.2-.6h-.5v-1.4h6.2l9.6,12.5h0v-7.3c0-1.8,0-3.9-2.5-3.9h-1.1v-1.4h7.8v1.4c-2.6.2-2.6,1.4-2.6,3.9Z"/>
      <path class="st66" d="M679.8,151.5c-6,0-9.1-4.3-9.1-9.5s1.3-10.4,9.8-10.4,4.7.4,6.4,1.4l.4,5.6h-1.6c-.2-1.1-.8-5.7-4.8-5.7s-5.3,6.3-5.3,8.5.2,8.1,5.1,8.1,4.8-1.7,5.5-5h1.6c-.3,2.3-2.2,6.9-8,6.9Z"/>
      <path class="st66" d="M692.3,151.3c-1.2,0-2.2-1-2.2-2.2s1-2.2,2.2-2.2,2.2,1,2.2,2.2-1,2.2-2.2,2.2Z"/>
    </g>
  </g>
  <g>
    <path class="st25" d="M415.1,205.5c-.3.3-.6.6-1,.9h0s0,0,0,0h0c0,0-.1.1-.2.2h0s0,0,0,0h0c0,0-.2,0-.2.1h0s-.1,0-.1,0h-.1c0,0-.1.1-.1.1h-.1c0,0-.1.1-.1.1h-.1s0,0,0,0c0,0-.2,0-.3,0h0s-.1,0-.1,0h-.1s-.1,0-.1,0h-.1s-.1,0-.1,0h-.1s-.1,0-.1,0h-.1s-.1,0-.1,0h-.1s-.1,0-.1,0h-.1s0,0,0,0c0,0-.1,0-.2,0h0s-.2,0-.2,0h0c-.1,0-.3,0-.4,0h-.2s-.2,0-.2,0h-.2c-2-.4-4.2-1-6.2-1.6-1.7-.5-3.3-1-5-1.5-.5-.2-1.1-.4-1.6-.5-.8-.3-1.8-.5-1.8-1.8v-1.2l1.2-.4c2.4-.8,4.8-1.5,7.2-2.3,2-.6,4.1-1.2,6.2-1.6h.2s.2,0,.2,0h.2s0,0,0,0c.1,0,.3,0,.4,0h0s.2,0,.2,0h.3s.2,0,.2,0h.1s.1,0,.1,0h.1s.1,0,.1,0h.1s.1,0,.1,0h.1s.1,0,.1,0h.1s.1,0,.1,0h0c0,0,.2,0,.3,0h0s.1,0,.1,0h.1c0,0,.1.1.1.1h.1c0,0,.1.1.1.1h.1c0,0,0,0,0,0,0,0,.2,0,.2.1h0s0,0,0,0h0c0,0,.2.1.2.2h0s0,0,0,0h0c.4.3.7.6,1,.9.6-4,2.2-7.7,4.7-10.8-1.2,0-2.5-.4-3.4-1.3-.5-.5-1-1.3-1.4-2-.5-.9-1.1-1.8-1.6-2.8-.9-1.6-1.7-3.1-2.5-4.7l-2.3-4.6h.1c0,0-.1-.2-.1-.2l4.7,2.3c1.6.8,3.2,1.6,4.8,2.5.9.5,1.9,1,2.8,1.6.6.4,1.5.9,2,1.4.9.9,1.4,2,1.3,3.3,0,.1,0,.2,0,.3.8-.6,1.6-1.1,2.4-1.6,2.6-1.5,5.4-2.5,8.4-3-1.2-1-2-2.5-2-4.2s.3-2.2.6-3.1c.4-1.4.8-2.9,1.2-4.3.7-2.3,1.5-4.7,2.2-7l.4-1.1h1.2c2.7-.2,4.9,2.1,4.9,4.7v3.7l1.5-1.7c1.7-1.9,4.6-2.2,6.6-.5,1.9,1.6,2.2,4.6.5,6.5l-8.6,9.9v.2l4.3-2.6c3.2-1.9,7.2.5,7.1,4.2l-.2,4.4h0s4-12.5,4-12.5c.8-2.4,3.4-3.8,5.8-3,2.5.8,3.8,3.3,3,5.8l-.7,2.2,3.3-2.1c2.2-1.3,5.1-.7,6.4,1.5,1.4,2.1.7,5-1.5,6.3l-3.1,1.9,2.3.3c2.5.4,4.3,2.7,3.9,5.2-.4,2.5-2.7,4.2-5.3,3.9l-13.1-1.9-.4.2,4.3,2.1c1.5.8,2.5,2.3,2.5,4h0v.5h0c0,1.7-1,3.2-2.5,4l-4.3,2.1.4.2,13.1-1.9c2.5-.4,4.9,1.4,5.3,3.9.4,2.5-1.4,4.8-3.9,5.2l-2.3.3,3.1,1.9c1.4.8,2.2,2.3,2.2,3.9,0,1.7-.9,3.3-2.5,4.1-1.5.8-3.2.7-4.7-.2l-3.3-2.1.7,2.2c.8,2.4-.6,5-3,5.8-2.5.8-5.1-.6-5.8-3l-3.8-12-.4,3.9c-.3,3-3.5,4.9-6.3,3.8l-2.9-1.1c-.2.1-.4.2-.6.4l7.5,8.7c1.7,1.9,1.4,4.8-.5,6.5-1.9,1.6-4.9,1.4-6.6-.5l-1.5-1.7v3.7c0,2.6-2.3,4.9-4.9,4.7h-1.2c0,0-.4-1.2-.4-1.2-.8-2.3-1.5-4.7-2.2-7-.4-1.4-.8-2.8-1.2-4.3-.2-.9-.6-2.2-.6-3.1,0-1.7.8-3.2,2-4.2-1.2-.2-2.4-.5-3.6-.9-2.6-.8-5.1-2.1-7.2-3.7,0,0,0,.2,0,.3,0,1.2-.4,2.4-1.3,3.3-.5.5-1.4,1-2,1.4-.9.5-1.9,1.1-2.8,1.6-1.6.8-3.2,1.7-4.8,2.5l-4.7,2.3v-.3c.1,0,0,0,0,0l2.3-4.6c.8-1.6,1.6-3.1,2.5-4.7.5-.9,1-1.9,1.6-2.8.4-.6.9-1.4,1.4-2,.9-.9,2.2-1.4,3.4-1.3-2.4-3.1-4.1-6.8-4.7-10.8"/>
    <g>
      <g>
        <polygon class="st24" points="252.2 183.6 252.2 216.6 244.4 216.6 244.4 203.8 238.5 203.8 238.5 216.6 230.6 216.6 230.6 183.6 238.5 183.6 238.5 195.7 244.4 195.7 244.4 183.6 252.2 183.6"/>
        <g class="st77">
          <rect class="st16" x="230.6" y="183.6" width="21.5" height="33"/>
        </g>
      </g>
      <g>
        <polygon class="st69" points="277.4 208.7 277.4 216.6 258.3 216.6 258.3 183.6 277.4 183.6 277.4 191.2 266 191.2 266 196 275.2 196 275.2 203.3 266 203.3 266 208.7 277.4 208.7"/>
        <g class="st35">
          <rect class="st69" x="258.3" y="183.6" width="19.1" height="33"/>
        </g>
      </g>
      <g>
        <path class="st53" d="M289.4,202.9h4.1l-2-9.6-2,9.6ZM296.3,216.6l-1.4-6.5h-6.9l-1.5,6.5h-6.3l7.9-33h8.2l8,33h-8Z"/>
        <g class="st38">
          <rect class="st52" x="280.1" y="183.6" width="24.1" height="33"/>
        </g>
      </g>
      <g>
        <polygon class="st54" points="317.2 191.5 317.2 216.6 309.8 216.6 309.8 191.5 304.6 191.5 304.6 183.6 322.5 183.6 322.5 191.5 317.2 191.5"/>
        <g class="st36">
          <rect class="st59" x="304.6" y="183.6" width="17.9" height="33"/>
        </g>
      </g>
      <g>
        <rect class="st56" x="326.4" y="183.6" width="7.8" height="33"/>
        <g class="st37">
          <rect class="st58" x="326.4" y="183.6" width="7.8" height="33"/>
        </g>
      </g>
      <g>
        <path class="st12" d="M362.1,216.6h-6.4l-7-14.6c-.9-1.9-1.8-4.2-2.7-6.9.4,2.1.6,3.9.6,5.4v16h-6.3v-33h7.4l5.9,12.1c1.2,2.4,2.1,4.5,2.7,6.3-.4-2.8-.6-5.7-.6-8.7v-9.8h6.4v33Z"/>
        <g class="st43">
          <rect class="st11" x="340.3" y="183.6" width="21.7" height="33"/>
        </g>
      </g>
      <g>
        <path class="st9" d="M390.1,198.1v18.5h-3.8c-.3-1.4-.6-2.5-1-3.5-1.6,2.6-3.9,4-7,4s-6-1.5-8.1-4.5c-2.1-3-3.2-7-3.2-12.1s1-9.1,3.1-12.4c2-3.4,5.1-5,9.1-5s5.5,1,7.3,3c1.8,2,3,4.8,3.6,8.5l-7.5,1c-.4-3.4-1.5-5.2-3.5-5.2s-3.9,3.2-3.9,9.5.4,6.3,1.2,7.6c.8,1.2,1.8,1.8,3,1.8s1.8-.4,2.4-1.1c.7-.7,1-1.8,1-3h-4.2v-7h11.5Z"/>
        <g class="st40">
          <rect class="st7" x="367.1" y="183.1" width="23.1" height="34"/>
        </g>
      </g>
    </g>
    <path class="st8" d="M410.7,198,438.6,160.6c-.4,1.3-3.9,11.8-3.9,13.9s1.8,3.9,3.9,3.9v-17.8ZM396.5,202h0s0,0,0,0c0,0,9.5-3.1,13.1-3.8,0,0,.1,0,.2,0,0,0,.1,0,.2,0,0,0,.1,0,.2,0,.1,0,.2,0,.3,0,0,0,0,0,.1,0h.2s0,0,.1,0c0,0,0,0,.1,0s0,0,.1,0c0,0,0,0,0,0,0,0,0,0,0,0,0,0,0,0,0,0,0,0,0,0,0,0,0,0,0,0,0,0,0,0,0,0,0,0,0,0,0,0,0,0,0,0,0,0,0,0,0,0,.1,0,.2,0,0,0,0,0,0,0,0,0,0,0,0,0,0,0,0,0,0,0h0s0,0,0,0h0s0,0,0,0c0,0,0,0,0,0,0,0,.1,0,.2,0,0,0,0,0,0,0,0,0,.1,0,.2.1,0,0,0,0,0,0h0c.9.6,1.5,1.6,1.6,2.7.1,1.4-.4,2.7-1.6,3.5h0s0,0,0,0c0,0-.1,0-.2.1,0,0,0,0,0,0,0,0-.1,0-.2,0,0,0,0,0,0,0,0,0,0,0,0,0h0s0,0,0,0c0,0,0,0,0,0,0,0,0,0,0,0,0,0,0,0,0,0,0,0-.1,0-.2,0,0,0,0,0,0,0,0,0,0,0,0,0,0,0,0,0,0,0,0,0,0,0,0,0,0,0,0,0,0,0,0,0,0,0,0,0,0,0,0,0,0,0,0,0,0,0,0,0,0,0,0,0-.1,0s0,0-.1,0c0,0,0,0-.1,0,0,0,0,0-.1,0s0,0-.1,0c0,0,0,0-.1,0,0,0-.2,0-.3,0,0,0-.1,0-.2,0,0,0-.1,0-.2,0,0,0-.1,0-.2,0-3.6-.7-13.1-3.8-13.1-3.8ZM412.5,228s0-.1.1-.3h-.1c0,0,4-7.8,5.1-8.9,1.1-1.1,2.9-1.1,4,0,.6.6.9,1.3.8,2.1,0,.7-.2,1.5-.8,2.1-1.1,1.1-9.1,5.1-9.1,5.1ZM412.5,176.1s4,7.9,5.1,9c1.1,1.1,2.9,1.1,4,0,.6-.6.9-1.3.8-2.1,0-.7-.2-1.5-.8-2.1-1.1-1.1-9.1-5.1-9.1-5.1,0,0,0,.1.1.3h-.1ZM438.6,243.3c-.4-1.3-3.9-11.8-3.9-13.9s1.8-3.9,3.9-3.9v17.8ZM438.6,206v.5c-.3,0-.6.1-1,.1s-.8,0-1-.1c-.3,0-.5-.2-.7-.4h0c-.2-.2-.3-.3-.4-.6,0-.2-.1-.5-.1-.8,0-.5,0-.8.3-1.1,0-.1.2-.3.4-.4l2.6,2.8ZM431.8,222.7c-8.9-2.9-15.1-11-15.3-20.3-.2-7.9,4-15.3,10.9-19.3,3.4-2,7.3-3,11.2-3,0,1.9,0,3.9,0,5.8-1.2,0-2.4.2-3.4.5-1.1.3-2.1.8-3,1.5-1.7,1.3-2.6,3.2-2.6,5.4s.2,1.8.6,2.8c.2.6.5,1.1.9,1.7-1.5.7-2.8,1.5-3.6,2.6-1.1,1.3-1.7,2.9-1.7,4.8s.3,2.6.8,3.7c.6,1.1,1.4,2.1,2.5,2.8h0c1.1.8,2.3,1.3,3.6,1.7,1.3.4,2.8.6,4.4.6s1,0,1.5,0c0,3.3,0,6.6,0,9.9-2.4,0-4.7-.4-6.8-1.1Z"/>
    <path class="st68" d="M445.7,198.6c-.3.3-.6.5-1,.7-.2.1-.4.3-.6.4l.8.9c0-.2.2-.4.3-.6.2-.4.4-.9.5-1.4M438.6,206v.4c0,0,.2,0,.3,0h0s-.3-.3-.3-.3ZM438.6,192.7v.9c0,0,0,.1.1.2.2.2.4.5.7.8.2-.1.3-.2.4-.4.2-.2.2-.5.2-.8s0-.3,0-.4c0,0,0-.2-.2-.3h0c0,0-.1-.1-.2-.2-.1,0-.3,0-.5,0s-.3,0-.4,0c0,0-.2,0-.2.1h0ZM476.4,210.8c-.2-1.6-1.7-2.7-3.3-2.4l-13.7,2-2.6-1.6v-1h0s6-3,6-3c1-.5,1.6-1.5,1.6-2.5v-.5c0-1.1-.6-2-1.6-2.5l-6-3h0v-1.1l2.6-1.6,13.7,2c1.6.2,3.1-.9,3.3-2.4.2-1.6-.8-3.1-2.5-3.3l-6.9-1,7.1-4.4c1.4-.9,1.8-2.7.9-4-.9-1.4-2.7-1.8-4.1-.9l-7.3,4.5,2.1-6.6c.5-1.5-.3-3.1-1.9-3.6-1.5-.5-3.2.4-3.7,1.9l-4.2,13-2.3,1.4-1.1-.6.3-6.3c.1-2.3-2.4-3.8-4.5-2.6l-5.6,3.3c0,0-.1,0-.2,0l-1.1-.7v-2.4l9-10.4c1.1-1.2.9-3-.3-4.1-1.2-1-3.1-.9-4.1.3l-4.5,5.2v-8.3c0-1.7-1.4-3.2-3.1-3.1v25.3c.2,0,.3,0,.4,0,2.7,0,4.8.6,6.5,1.9h0c.9.6,1.5,1.4,2,2.3.4.9.7,1.9.7,3s-.1,1.8-.4,2.5c-.1.4-.3.8-.6,1.2l7.6.9-.3,1.1c-.4,1.8-1,3.4-1.8,4.8-.5.9-1.1,1.8-1.7,2.5.2,0,.4,0,.7,0,.5,0,1,0,1.7-.1h1.1c0-.1,0,7.2,0,7.2l-.7.2c-.5.1-1.1.3-1.7.3-.6,0-1.1.1-1.6.1-1.3,0-2.5-.2-3.6-.6-.9-.3-1.7-.7-2.4-1.2-.8.6-1.8,1-2.8,1.3-.9.3-2,.4-3.1.5,0,9.8,0,19.6,0,29.4,1.7.1,3.1-1.4,3.1-3v-8.3l4.5,5.2c1.1,1.2,2.9,1.4,4.1.3,1.2-1,1.4-2.9.3-4.1l-8.9-10.3c.9-.4,1.9-.9,3.2-1.7l3.7,1.4c1.8.7,3.8-.5,4-2.4l.7-6.2.7-.4,2.1,1.3,4.2,13c.5,1.5,2.1,2.4,3.7,1.9,1.6-.5,2.4-2.1,1.9-3.6l-2.1-6.6,7.3,4.5c2,1.2,4.5-.2,4.5-2.5,0-1-.5-1.9-1.4-2.4l-7.1-4.4,6.9-1c1.6-.2,2.7-1.7,2.5-3.3Z"/>
    <path class="st63" d="M434,202.5c.4-.6,1-1.1,1.8-1.5l.7-.3,5.4,5.9-.7.7c-.5.4-1,.7-1.6,1-.6.2-1.2.3-2,.3s-1.2,0-1.7-.2c-.5-.2-1-.4-1.4-.8-.4-.4-.7-.8-.9-1.3-.2-.5-.3-1-.3-1.5,0-.9.2-1.6.6-2.2M436,203.2c-.1.1-.3.2-.4.4-.2.3-.3.7-.3,1.1s0,.6.1.8c0,.2.2.4.4.6h0c.2.2.4.3.7.4.3,0,.6.1,1,.1s.9,0,1.3-.2h0s-2.9-3.2-2.9-3.2ZM441.5,195.4c-.4.5-1,1-1.8,1.3l-.5.2-.5-.3c-.7-.5-1.2-1.1-1.6-1.6-.4-.6-.7-1.2-.7-1.8s0-.7.2-1c.1-.3.3-.6.6-.8.3-.2.6-.4.9-.6.3-.1.7-.2,1.1-.2s.8,0,1.2.2c.4.1.7.4,1,.6.3.3.5.6.6.9.1.3.2.7.2,1.1,0,.8-.2,1.4-.7,2ZM439.5,194.5c.2-.1.3-.2.4-.4.2-.2.2-.5.2-.8s0-.3,0-.4c0,0,0-.2-.2-.3h0c0,0-.1-.1-.2-.2-.1,0-.3,0-.5,0s-.3,0-.4,0c0,0-.2,0-.2.1,0,0-.1.1-.1.2,0,0,0,.1,0,.2,0,.2,0,.4.3.7.2.2.4.5.7.8ZM445.7,198.6c-.3.3-.6.5-1,.7-.2.1-.4.3-.6.4l.8.9c0-.2.2-.4.3-.6.2-.4.4-.9.5-1.4ZM452.3,199.5l-4.6-.6c-.2.7-.4,1.3-.7,1.9-.4.8-.8,1.5-1.3,2l-.7.7-4.4-4.7,1.5-.5c.5-.2,1.1-.4,1.5-.7.5-.3.9-.7,1.4-1.2h0c.4-.4.7-.9.9-1.5.2-.6.3-1.2.3-1.9s-.2-1.5-.5-2.2c-.3-.6-.8-1.1-1.4-1.6h0c-1.3-1-3.1-1.4-5.3-1.4s-2.3.1-3.2.4c-.9.3-1.7.6-2.3,1.1-1.2.9-1.8,2.2-1.8,3.9s.1,1.3.4,2c.3.7.8,1.5,1.4,2.3l.9,1.1-1.3.5c-1.8.6-3.1,1.4-4,2.5-.8,1-1.2,2.2-1.2,3.5s.2,2,.6,2.8c.4.8,1,1.5,1.9,2.1h0c.9.6,1.9,1.1,3,1.4,1.1.3,2.4.5,3.8.5s2.8-.2,3.9-.5c1.1-.3,2-.8,2.8-1.4l.6-.5.6.5c.8.6,1.6,1.1,2.5,1.4.9.3,1.9.5,2.9.5s.9,0,1.4,0c.2,0,.4,0,.7-.1v-3.6c-.3,0-.6,0-.8,0-.6,0-1.2,0-1.7-.2-.5-.2-1-.4-1.4-.7l-.9-.7.8-.8c.9-.8,1.7-1.8,2.3-3,.5-.9.9-2,1.3-3.2ZM447.2,196.9l7.6.9-.3,1.1c-.4,1.8-1,3.4-1.8,4.8-.5.9-1.1,1.8-1.7,2.5.2,0,.4,0,.7,0,.5,0,1,0,1.7-.1h1.1c0-.1,0,7.2,0,7.2l-.7.2c-.5.1-1.1.3-1.7.3-.6,0-1.1.1-1.6.1-1.3,0-2.5-.2-3.6-.6-.9-.3-1.7-.7-2.4-1.2-.8.6-1.8,1-2.8,1.3-1.3.4-2.8.6-4.5.6s-3-.2-4.4-.6c-1.3-.4-2.5-.9-3.6-1.7h0c-1.1-.8-1.9-1.7-2.5-2.8-.6-1.1-.8-2.3-.8-3.7s.6-3.5,1.7-4.8c.9-1,2.1-1.9,3.6-2.6-.4-.6-.7-1.1-.9-1.7-.4-.9-.6-1.9-.6-2.8,0-2.3.9-4.1,2.6-5.4.9-.7,1.8-1.1,3-1.5,1.1-.3,2.4-.5,3.8-.5,2.7,0,4.8.6,6.5,1.9h0c.9.6,1.5,1.4,2,2.3.4.9.7,1.9.7,3s-.1,1.8-.4,2.5c-.1.4-.3.8-.6,1.2Z"/>
    <path class="st26" d="M436.2,201.9c-1.2.5-1.8,1.4-1.8,2.8s.3,1.5.9,2.1c.6.5,1.4.8,2.4.8s2.2-.3,2.9-1l-4.3-4.6ZM439.3,195.7c1.2-.5,1.8-1.3,1.8-2.3s-.2-1-.5-1.3c-.3-.4-.8-.5-1.4-.5s-1,.2-1.3.5c-.3.3-.5.7-.5,1.1,0,.8.6,1.7,1.9,2.6ZM446.9,197.8l6.6.8c-.8,3.4-2.2,6-4.2,7.8.6.5,1.4.7,2.4.7s1.1,0,1.8-.1v5.4c-1,.3-2.1.4-3,.4-2.3,0-4.3-.7-6-2-1.7,1.4-4.2,2.1-7.4,2.1s-5.4-.7-7.4-2.1c-1.9-1.4-2.9-3.3-2.9-5.8s2-5.6,5.9-6.9c-1.4-1.7-2.1-3.4-2.1-4.9s.7-3.5,2.2-4.6c1.5-1.2,3.5-1.7,6.1-1.7s4.4.5,5.9,1.6c1.5,1.1,2.2,2.6,2.2,4.5s-.5,2.9-1.5,4c-1,1.1-2.1,1.8-3.4,2.2l2.6,2.8c.8-.8,1.5-2.3,1.9-4.3Z"/>
    <g>
      <path class="st73" d="M512.5,204.4c-1,7.2-4.7,12.4-11.8,12.4s-12.3-8.1-12.3-17.9,4-17.8,12.6-17.8,11,6,11.6,12.2h-7.2c-.3-1.9-1.2-4.7-4.4-4.7s-5,4.1-5,10.1,1.3,10.5,5,10.5,3.8-1.8,4.4-4.7h7.1Z"/>
      <path class="st73" d="M540.2,198.9c0,9.6-4.1,17.9-12.8,17.9s-12.3-7.9-12.3-17.9,4.3-17.8,12.7-17.8,12.4,8.1,12.4,17.8ZM522.7,198.7c0,5.9,1.5,10.3,5.1,10.3s4.9-5,4.9-10.1-1.3-10.3-5.1-10.3-4.9,4.5-4.9,10.1Z"/>
      <path class="st73" d="M568.2,198.9c0,9.6-4.1,17.9-12.8,17.9s-12.3-7.9-12.3-17.9,4.3-17.8,12.7-17.8,12.4,8.1,12.4,17.8ZM550.6,198.7c0,5.9,1.5,10.3,5.1,10.3s4.9-5,4.9-10.1-1.3-10.3-5.1-10.3-4.9,4.5-4.9,10.1Z"/>
      <path class="st73" d="M572.1,181.9h7.2v26.2h11.8l-.8,7.9h-18.2v-34.1Z"/>
      <path class="st73" d="M600.8,181.9v34.1h-7.2v-34.1h7.2Z"/>
      <path class="st73" d="M606,216v-34.1h8.3c4.9,12.2,6.5,16.7,7.9,21.1h.1c-.2-3.2-.2-9.4-.2-15v-6h6.4v34.1h-7.9c-1.7-4.7-7.1-19.3-8.4-23.4h-.1c.2,3.9.2,8.4.2,15.1v8.3h-6.5Z"/>
      <path class="st73" d="M656.6,216h-4.9c-.2-.7-.3-1.9-.4-3.1-1.4,2.4-3.3,3.9-7.3,3.9-7.3,0-11.3-7.6-11.3-17.5s4-18.2,12.6-18.2,10.7,5.5,11.3,11.2h-7.2c-.3-1.6-1.3-3.9-4.1-3.9s-5.1,4.7-5.1,10.3,1.5,10.6,5.2,10.6,4.2-2.8,4.2-5.4v-.4h-4.3v-7.5h11.2v19.9Z"/>
    </g>
    <g>
      <path class="st48" d="M512.5,204.4c-1,7.2-4.7,12.4-11.8,12.4s-12.3-8.1-12.3-17.9,4-17.8,12.6-17.8,11,6,11.6,12.2h-7.2c-.3-1.9-1.2-4.7-4.4-4.7s-5,4.1-5,10.1,1.3,10.5,5,10.5,3.8-1.8,4.4-4.7h7.1Z"/>
      <path class="st46" d="M540.2,198.9c0,9.6-4.1,17.9-12.8,17.9s-12.3-7.9-12.3-17.9,4.3-17.8,12.7-17.8,12.4,8.1,12.4,17.8ZM522.7,198.7c0,5.9,1.5,10.3,5.1,10.3s4.9-5,4.9-10.1-1.3-10.3-5.1-10.3-4.9,4.5-4.9,10.1Z"/>
      <path class="st50" d="M568.2,198.9c0,9.6-4.1,17.9-12.8,17.9s-12.3-7.9-12.3-17.9,4.3-17.8,12.7-17.8,12.4,8.1,12.4,17.8ZM550.6,198.7c0,5.9,1.5,10.3,5.1,10.3s4.9-5,4.9-10.1-1.3-10.3-5.1-10.3-4.9,4.5-4.9,10.1Z"/>
      <path class="st47" d="M572.1,181.9h7.2v26.2h11.8l-.8,7.9h-18.2v-34.1Z"/>
      <path class="st44" d="M600.8,181.9v34.1h-7.2v-34.1h7.2Z"/>
      <path class="st49" d="M606,216v-34.1h8.3c4.9,12.2,6.5,16.7,7.9,21.1h.1c-.2-3.2-.2-9.4-.2-15v-6h6.4v34.1h-7.9c-1.7-4.7-7.1-19.3-8.4-23.4h-.1c.2,3.9.2,8.4.2,15.1v8.3h-6.5Z"/>
      <path class="st45" d="M656.6,216h-4.9c-.2-.7-.3-1.9-.4-3.1-1.4,2.4-3.3,3.9-7.3,3.9-7.3,0-11.3-7.6-11.3-17.5s4-18.2,12.6-18.2,10.7,5.5,11.3,11.2h-7.2c-.3-1.6-1.3-3.9-4.1-3.9s-5.1,4.7-5.1,10.3,1.5,10.6,5.2,10.6,4.2-2.8,4.2-5.4v-.4h-4.3v-7.5h11.2v19.9Z"/>
    </g>
  </g>
  <g>
    <g>
      <rect class="st75" x="291.8" y="250" width="37.2" height="26.8"/>
      <polygon class="st75" points="329 278.6 291.8 278.2 291.8 277.8 329 277.4 329 278.6"/>
      <polygon class="st75" points="329 280.6 291.8 280.2 291.8 279.9 329 279.4 329 280.6"/>
      <polygon class="st75" points="329 282.7 291.8 282.3 291.8 281.9 329 281.5 329 282.7"/>
      <polygon class="st75" points="329 284.6 291.8 284.2 291.8 283.9 329 283.4 329 284.6"/>
      <polygon class="st75" points="329 286.6 291.8 286.1 291.8 285.8 329 285.4 329 286.6"/>
      <g class="st39">
        <path class="st63" d="M296.7,253.3h2.4c2.1,0,2.8.8,2.8,2.6v3.3c0,1.5-.4,2.8-2.7,2.8h-2.5v-8.8ZM298.6,260.7h.4c.8,0,.9-.4.9-1.1v-3.9c0-.6-.2-1-.9-1h-.4v6.1Z"/>
        <path class="st63" d="M310.9,255.1c.3,2,.6,3.8.6,4.7h.2c.1-1.2.2-2,.6-4.7h1.9c-.1.4-1.3,5.5-1.5,6.7-.4,2-1.2,2.1-2.5,2.1s-.6,0-.9,0v-1.3s.2,0,.4,0c.3,0,.7,0,.9-.3,0,0,0-.1,0-.2,0-.2,0-.4,0-.6l-1.6-6.4h1.9Z"/>
        <path class="st63" d="M324,257.6c-.1.4-.3.9-.6,1.4-.2.4-.4.7-.6,1,.5.7.9,1.3,1.4,2h-1.9s-.5-.7-.5-.7c-.5.5-1.4.8-2.2.8-1.6,0-2.5-1.3-2.5-2.7s.6-1.9,1.5-2.5c-.5-.7-.7-.8-.7-1.7s.6-2.1,2.1-2.1,2.2.6,2.2,1.8-.2,1.6-1.4,2.3l1,1.3.5-.9h1.7ZM320.8,260l-1.4-1.9c-.3.2-.4.5-.5.9-.1.8.1,1.1.7,1.3.4,0,.8,0,1.1-.3M320,256c.6-.3.8-.6.8-1.1s-.1-.6-.6-.6-.6.2-.6.6,0,.7.5,1.1"/>
        <path class="st63" d="M296.8,272.6v-8.7h2.5l1.6,5.8h0v-5.8h1.7v8.7h-2.6l-1.1-4.3s-.4-1.5-.4-1.5h0v5.8s-1.7,0-1.7,0Z"/>
        <path class="st63" d="M304.7,265.8h1.7v6.8h-1.7v-6.8ZM304.7,264.1h1.7v.9h-1.7v-.9Z"/>
        <path class="st63" d="M312.8,271.7c0,1.6-.2,2.8-2.4,2.8s-2.2-1.2-2.1-2.1h0s1.7,0,1.7,0h0c0,.2,0,.8.5.8s.6-.3.6-1v-1c-.2.4-.7.7-1.3.7-1.3,0-1.5-.7-1.5-1.8v-2.5c0-.9.1-1.9,1.5-1.9s1.2.3,1.3.7c0-.2,0-.7,0-.7h1.7s0,1,0,1.8v4.2ZM310,269.9c0,.5.1.7.5.7s.5-.2.5-.8v-1.8c0-.4,0-.7-.4-.7s-.5.2-.5.6v2Z"/>
        <path class="st63" d="M314.7,264.1h1.9v2c.3-.4.7-.7,1.4-.7,1.2,0,1.5.9,1.5,1.5v5.8h-1.9v-4.8c0-.5,0-.8-.5-.8s-.6.2-.6,1v4.7h-1.9v-8.6Z"/>
        <path class="st63" d="M320.9,265.8h.9v-1.4h1.7v1.4h.9v1h-.9v4c0,.3.1.7.5.7s.4,0,.4,0v1.2s-1.3,0-1.3,0c-1,0-1.4.1-1.4-1.5v-4.4h-.9v-1Z"/>
        <path class="st63" d="M326.7,272c0,.4-.3.6-.6.6s-.6-.3-.6-.6.2-.6.6-.6.6.3.6.6M325.6,272c0,.3.2.5.4.5s.5-.2.5-.5-.2-.5-.5-.5-.4.2-.4.5M325.8,272.3v-.6h.3c.1,0,.2,0,.2.2s0,.1,0,.1c0,0,0,0,0,.2s0,0,0,.1h-.2s0,0,0-.1,0,0,0,0h0v.2h-.2ZM326,271.9h0s0,0,0,0,0,0,0,0h0Z"/>
      </g>
      <g>
        <path class="st75" d="M292.4,288.2v.7h.7v-.7h.4v1.9h-.4v-.8h-.7v.8h-.4v-1.9h.4Z"/>
        <path class="st75" d="M294.3,289.6c0,.2.2.2.4.2s.3,0,.4,0v.3c0,0-.3,0-.4,0-.4,0-.7-.3-.7-.7s.2-.7.7-.7.6.4.6.7,0,.1,0,.2h-.9ZM294.8,289.3c0,0,0-.3-.2-.3s-.3.2-.3.3h.5Z"/>
        <path class="st75" d="M296.3,290.1h0c0-.1,0-.1,0-.1,0,.1-.2.2-.4.2-.3,0-.4-.2-.4-.4,0-.4.3-.5.8-.5h0c0,0,0-.2-.2-.2s-.3,0-.4.1v-.3c0,0,.2-.1.4-.1.4,0,.6.3.6.6v.5c0,.1,0,.3,0,.3h-.4ZM296.3,289.5c-.2,0-.4,0-.4.2s0,.2.2.2.2,0,.2-.2c0,0,0,0,0,0h0Z"/>
        <path class="st75" d="M297.6,288.3v.4h.3v.3h-.3v.4c0,.2,0,.3.2.3s0,0,.1,0v.3s-.1,0-.3,0-.2,0-.3-.1c0,0-.1-.2-.1-.4v-.5h-.2v-.3h.2v-.3h.4Z"/>
        <path class="st75" d="M298.7,288.4c0,.1,0,.2-.2.2s-.2,0-.2-.2,0-.2.2-.2.2,0,.2.2ZM298.2,290.1v-1.4h.4v1.4h-.4Z"/>
        <path class="st75" d="M299.1,289.2c0-.2,0-.3,0-.4h.4v.2h0c0,0,.2-.2.4-.2s.5.2.5.6v.8h-.4v-.7c0-.2,0-.3-.2-.3s-.2,0-.2.2c0,0,0,0,0,0v.8h-.4v-.9Z"/>
        <path class="st75" d="M302.1,288.7c0,0,0,.2,0,.4v.7c0,.3,0,.5-.2.6-.2.1-.4.2-.5.2s-.4,0-.5-.1v-.3c.2,0,.3.1.5.1s.4-.1.4-.4h0c0,0,0,0,0,0,0,.1-.2.2-.4.2-.3,0-.6-.3-.6-.7s.3-.7.6-.7.3,0,.4.2h0v-.2h.4ZM301.7,289.3s0,0,0,0c0-.1-.1-.2-.2-.2s-.3.1-.3.4,0,.4.3.4.2,0,.2-.2c0,0,0,0,0-.1h0Z"/>
        <path class="st75" d="M304.5,290.1s0,0-.1-.1c-.1,0-.3.2-.5.2-.5,0-.6-.3-.6-.5s.1-.4.3-.5h0c0,0-.1-.2-.1-.4,0-.2.2-.5.5-.5s.5.2.5.4-.1.4-.4.5h0c.1.1.2.3.3.3,0-.1.1-.3.2-.5h.4c0,.3-.1.5-.3.7.1.1.2.3.3.4h-.5ZM304.1,289.7c-.1-.1-.3-.3-.4-.5,0,0-.1.1-.1.3s.1.3.3.3.2,0,.3,0ZM303.8,288.6c0,0,0,.2.1.3.1,0,.2-.2.2-.3s0-.2-.2-.2-.2,0-.2.2Z"/>
      </g>
      <polygon class="st3" points="292 288.2 292 290.1 292.4 290.1 292.4 289.3 293.1 289.3 293.1 290.1 293.5 290.1 293.5 288.2 293.1 288.2 293.1 288.9 292.4 288.9 292.4 288.2 292 288.2"/>
      <path class="st3" d="M294.3,289.3c0-.1,0-.3.3-.3s.2.2.2.3h-.5ZM295.2,289.6s0,0,0-.2c0-.3-.2-.7-.6-.7s-.7.4-.7.7.3.7.7.7.3,0,.5,0v-.3c-.2,0-.3,0-.4,0s-.4,0-.4-.2h.9Z"/>
      <path class="st3" d="M296.3,289.6s0,0,0,0c0,0-.1.2-.2.2s-.2,0-.2-.2c0-.2.2-.2.4-.2h0ZM296.7,290.1c0,0,0-.2,0-.3v-.5c0-.3-.2-.6-.6-.6s-.4,0-.5.1v.3c.2,0,.3-.1.4-.1.2,0,.2.1.2.2h0c-.5,0-.8.2-.8.5s.2.4.4.4.3,0,.4-.2h0c0,.1.4.1.4.1Z"/>
      <path class="st3" d="M297.2,288.4v.3h-.2v.3h.2v.5c0,.2,0,.3.1.4,0,0,.2.1.3.1s.2,0,.3,0v-.3s0,0-.1,0c-.1,0-.2,0-.2-.3v-.4h.3v-.3h-.3v-.4h-.4Z"/>
      <path class="st3" d="M298.4,288.1c-.1,0-.2,0-.2.2s0,.2.2.2.2,0,.2-.2c0-.1,0-.2-.2-.2ZM298.6,290.1v-1.4h-.4v1.4h.4Z"/>
      <path class="st3" d="M299.1,290.1h.4v-.8s0,0,0,0c0,0,0-.2.2-.2s.2.1.2.3v.7h.4v-.8c0-.4-.2-.6-.5-.6s-.4.1-.4.2h0v-.2h-.4c0,.1,0,.3,0,.4v.9Z"/>
      <path class="st3" d="M301.7,289.5s0,0,0,.1c0,.1-.1.2-.2.2-.2,0-.3-.2-.3-.4s.1-.4.3-.4.2,0,.2.2c0,0,0,0,0,0h0ZM301.8,288.7v.2h0c0-.1-.2-.2-.4-.2-.3,0-.6.3-.6.7s.3.7.6.7.3,0,.4-.2h0c0,.4-.2.5-.4.5s-.3,0-.4-.1v.3c0,0,.2.1.4.1s.4,0,.5-.2c.2-.1.2-.4.2-.6v-.7c0-.2,0-.3,0-.4h-.4Z"/>
      <path class="st3" d="M303.9,288.5c.1,0,.2,0,.2.2s0,.2-.2.3c0,0-.1-.2-.1-.3s0-.2.2-.2ZM303.9,289.8c-.2,0-.3-.1-.3-.3s0-.2.1-.3c.2.2.3.3.4.5,0,0-.1,0-.3,0ZM304.9,290.1c-.1-.1-.2-.2-.3-.4.2-.2.3-.4.3-.7h-.4c0,.2,0,.3-.2.5,0,0-.2-.2-.3-.3h0c.2-.1.4-.3.4-.5s-.2-.4-.5-.4-.5.3-.5.5,0,.3.1.3h0c-.2.1-.3.3-.3.6s.2.5.6.5.4,0,.5-.2c0,0,0,0,.1.1h.5Z"/>
      <rect class="st0" x="290.2" y="248.6" width="40.4" height="43.5"/>
      <g>
        <path class="st75" d="M307.4,290c0,0-.3,0-.5,0-.6,0-1-.4-1-.9s.4-1,1-1,.4,0,.5,0v.3c-.2,0-.3,0-.5,0-.3,0-.6.2-.6.6s.2.6.6.6.3,0,.4,0v.3Z"/>
        <path class="st75" d="M309.1,289.4c0,.5-.3.7-.7.7s-.7-.3-.7-.7.3-.7.7-.7.7.3.7.7ZM308.1,289.4c0,.2.1.4.3.4s.3-.1.3-.4,0-.4-.3-.4-.3.2-.3.4Z"/>
        <path class="st75" d="M310.8,289.4c0,.5-.3.7-.7.7s-.7-.3-.7-.7.3-.7.7-.7.7.3.7.7ZM309.8,289.4c0,.2.1.4.3.4s.3-.1.3-.4,0-.4-.3-.4-.3.2-.3.4Z"/>
        <path class="st75" d="M311.2,288.1h.4v2h-.4v-2Z"/>
        <path class="st75" d="M312.5,288.4c0,.1,0,.2-.2.2s-.2,0-.2-.2,0-.2.2-.2.2,0,.2.2ZM312.1,290.1v-1.4h.4v1.4h-.4Z"/>
        <path class="st75" d="M313,289.2c0-.2,0-.3,0-.4h.4v.2h0c0,0,.2-.2.4-.2s.5.2.5.6v.8h-.4v-.7c0-.2,0-.3-.2-.3s-.2,0-.2.2c0,0,0,0,0,0v.8h-.4v-.9Z"/>
        <path class="st75" d="M316,288.7c0,0,0,.2,0,.4v.7c0,.3,0,.5-.2.6-.2.1-.4.2-.5.2s-.4,0-.5-.1v-.3c.2,0,.3.1.5.1s.4-.1.4-.4h0c0,0,0,0,0,0,0,.1-.2.2-.4.2-.3,0-.6-.3-.6-.7s.3-.7.6-.7.3,0,.4.2h0v-.2h.4ZM315.6,289.3s0,0,0,0c0-.1-.1-.2-.2-.2s-.3.1-.3.4,0,.4.3.4.2,0,.2-.2c0,0,0,0,0-.1h0Z"/>
      </g>
      <g class="st42">
        <path class="st3" d="M307.3,289.7c0,0-.2,0-.4,0-.4,0-.6-.3-.6-.6s.3-.6.6-.6.3,0,.4,0v-.3s-.2,0-.4,0c-.6,0-1,.4-1,1s.3.9,1,.9.4,0,.5,0v-.3Z"/>
        <path class="st3" d="M308.4,289c.2,0,.3.2.3.4s-.1.4-.3.4-.3-.2-.3-.4,0-.4.3-.4ZM308.4,288.7c-.5,0-.7.3-.7.7s.3.7.7.7.7-.3.7-.7-.3-.7-.7-.7Z"/>
        <path class="st3" d="M310.1,289c.2,0,.3.2.3.4s-.1.4-.3.4-.3-.2-.3-.4,0-.4.3-.4ZM310.1,288.7c-.5,0-.7.3-.7.7s.3.7.7.7.7-.3.7-.7-.3-.7-.7-.7Z"/>
        <rect class="st3" x="311.2" y="288.1" width=".4" height="2"/>
        <path class="st3" d="M312.3,288.1c-.1,0-.2,0-.2.2s0,.2.2.2.2,0,.2-.2c0-.1,0-.2-.2-.2ZM312.5,290.1v-1.4h-.4v1.4h.4Z"/>
        <path class="st3" d="M313,290.1h.4v-.8s0,0,0,0c0,0,0-.2.2-.2s.2.1.2.3v.7h.4v-.8c0-.4-.2-.6-.5-.6s-.4.1-.4.2h0v-.2h-.4c0,.1,0,.3,0,.4v.9Z"/>
        <path class="st3" d="M315.6,289.5s0,0,0,.1c0,.1-.1.2-.2.2-.2,0-.3-.2-.3-.4s.1-.4.3-.4.2,0,.2.2c0,0,0,0,0,0h0ZM315.7,288.7v.2h0c0-.1-.2-.2-.4-.2-.3,0-.6.3-.6.7s.3.7.6.7.3,0,.4-.2h0c0,.4-.2.5-.4.5s-.3,0-.4-.1v.3c0,0,.2.1.4.1s.4,0,.5-.2c.2-.1.2-.4.2-.6v-.7c0-.2,0-.3,0-.4h-.4Z"/>
      </g>
      <g>
        <path class="st75" d="M317.2,288.3c.1,0,.3,0,.6,0s.4,0,.5.2c.1,0,.2.2.2.4s0,.3-.2.4c-.1.1-.3.2-.6.2s-.1,0-.2,0v.7h-.4v-1.8ZM317.6,289.1s0,0,.2,0c.2,0,.4-.1.4-.3s-.1-.3-.3-.3-.2,0-.2,0v.5Z"/>
        <path class="st75" d="M318.9,289.2c0-.2,0-.3,0-.5h.3v.3h0c0-.2.2-.3.4-.3s0,0,0,0v.4s0,0-.1,0c-.2,0-.3,0-.3.2,0,0,0,0,0,0v.7h-.4v-.9Z"/>
        <path class="st75" d="M321.4,289.4c0,.5-.3.7-.7.7s-.7-.3-.7-.7.3-.7.7-.7.7.3.7.7ZM320.4,289.4c0,.2.1.4.3.4s.3-.1.3-.4,0-.4-.3-.4-.3.2-.3.4Z"/>
        <path class="st75" d="M323.1,288.1v1.6c0,.2,0,.3,0,.4h-.4v-.2h0c0,.2-.3.2-.4.2-.3,0-.6-.3-.6-.7,0-.5.3-.7.6-.7s.3,0,.4.2h0v-.8h.4ZM322.7,289.3s0,0,0,0c0-.1-.1-.2-.3-.2-.2,0-.3.2-.3.4s.1.4.3.4.2-.1.3-.2c0,0,0,0,0,0h0Z"/>
        <path class="st75" d="M324.8,289.6c0,.2,0,.3,0,.4h-.4v-.2h0c0,0-.2.2-.4.2s-.5-.2-.5-.6v-.8h.4v.7c0,.2,0,.3.2.3s.2,0,.2-.2c0,0,0,0,0,0v-.8h.4v.9Z"/>
        <path class="st75" d="M326.3,290.1c0,0-.2,0-.4,0-.4,0-.7-.3-.7-.7s.3-.7.8-.7.2,0,.3,0v.3c-.1,0-.2,0-.3,0-.2,0-.4.2-.4.4s.2.4.4.4.2,0,.3,0v.3Z"/>
        <path class="st75" d="M327.2,288.3v.4h.3v.3h-.3v.4c0,.2,0,.3.2.3s0,0,.1,0v.3s-.1,0-.3,0-.2,0-.3-.1c0,0-.1-.2-.1-.4v-.5h-.2v-.3h.2v-.3h.4Z"/>
        <path class="st75" d="M327.8,289.7c0,0,.2.1.4.1s.2,0,.2-.1,0,0-.2-.1c-.3,0-.4-.2-.4-.4,0-.3.2-.5.5-.5s.3,0,.4,0v.3c-.1,0-.3,0-.4,0s-.2,0-.2.1,0,.1.2.2c.3,0,.4.2.4.4,0,.2-.2.4-.6.4s-.3,0-.4-.1v-.3Z"/>
      </g>
      <g class="st41">
        <path class="st3" d="M317.6,288.6s0,0,.2,0c.2,0,.3,0,.3.3s-.1.3-.4.3-.1,0-.2,0v-.5ZM317.2,290.1h.4v-.7s0,0,.2,0c.3,0,.5,0,.6-.2.1-.1.2-.3.2-.4s0-.3-.2-.4c-.1,0-.3-.2-.5-.2s-.5,0-.6,0v1.8Z"/>
        <path class="st3" d="M318.9,290.1h.4v-.7s0,0,0,0c0-.1.1-.2.3-.2s0,0,.1,0v-.4s0,0,0,0c-.1,0-.3,0-.4.3h0v-.3h-.4c0,.1,0,.2,0,.5v.9Z"/>
        <path class="st3" d="M320.7,289c.2,0,.3.2.3.4s-.1.4-.3.4-.3-.2-.3-.4,0-.4.3-.4ZM320.7,288.7c-.5,0-.7.3-.7.7s.3.7.7.7.7-.3.7-.7-.3-.7-.7-.7Z"/>
        <path class="st3" d="M322.7,289.4s0,0,0,0c0,.1-.1.2-.3.2s-.3-.1-.3-.4.1-.4.3-.4.2,0,.3.2c0,0,0,0,0,0h0ZM322.7,288.1v.8h0c0,0-.2-.2-.4-.2-.3,0-.6.3-.6.7,0,.4.3.7.6.7s.3,0,.4-.2h0v.2h.4c0,0,0-.2,0-.4v-1.6h-.4Z"/>
        <path class="st3" d="M324.8,288.7h-.4v.8s0,0,0,0c0,0,0,.2-.2.2s-.2-.1-.2-.3v-.7h-.4v.8c0,.4.2.6.5.6s.4-.2.4-.2h0v.2h.4c0-.1,0-.3,0-.4v-.9Z"/>
        <path class="st3" d="M326.2,289.7c0,0-.2,0-.3,0-.2,0-.4-.1-.4-.4s.1-.4.4-.4.2,0,.2,0v-.3s-.2,0-.3,0c-.5,0-.8.3-.8.7s.3.7.7.7.3,0,.4,0v-.3Z"/>
        <path class="st3" d="M326.8,288.4v.3h-.2v.3h.2v.5c0,.2,0,.3.1.4,0,0,.2.1.3.1s.2,0,.3,0v-.3s0,0-.1,0c-.1,0-.2,0-.2-.3v-.4h.3v-.3h-.3v-.4h-.4Z"/>
        <path class="st3" d="M327.8,290c.1,0,.3.1.4.1.4,0,.6-.2.6-.4,0-.2-.1-.3-.4-.4-.2,0-.2,0-.2-.2s0-.1.2-.1.2,0,.3,0v-.3s-.2,0-.3,0c-.3,0-.5.2-.5.5,0,.2.1.3.4.4.2,0,.2,0,.2.1s0,.1-.2.1-.3,0-.4-.1v.3Z"/>
        <path class="st63" d="M305.6,254.8c1.6,0,2,1,2,2.2v5.1h-1.5v-.8h0c-.5.5-1,.8-1.6.8s-1.3-.7-1.3-1.7.5-1.9,1.8-2.6l1.1-.5v-.5c0-.4-.1-.9-.6-.9s-.6.5-.6,1h-1.5c0-1.3.7-2.2,2.3-2.2M306.1,260.3v-2c-.3.1-.4.3-.7.5-.5.5-.7.9-.7,1.4s.1.7.5.7.6-.2.9-.6"/>
      </g>
      <rect class="st0" x="290.2" y="248.6" width="40.4" height="43.5"/>
    </g>
    <g>
      <g>
        <path class="st62" d="M550,275.1h-8.6v-2.6h-.2c-1.4,2.1-3.8,3.1-6.8,3.1s-7.2-.9-7.2-6.5v-8.8h8.7v7.9c0,2.2.9,2.9,2.4,2.9s2.8-1.2,2.8-3.5v-7.3h8.7v1.2c-.6,3.1-2.3,5.7-2.3,9s2.5,4.6,2.5,4.6"/>
        <path class="st62" d="M502,266.1c0-2,0-3.9-.2-5.8h8.6v2.6h.2c1.4-2.1,3.8-3.1,6.8-3.1s7.2.9,7.2,6.5v8.8h-8.7v-7.9c0-2.2-.9-2.9-2.4-2.9s-2.8,1.2-2.8,3.5v7.3h-8.7v-9Z"/>
      </g>
      <g>
        <polygon class="st30" points="532.4 285.2 531.3 281.8 529.9 281.8 528.8 285.1 527.7 281.8 526.1 281.8 528 287.5 529.5 287.5 530.6 284.3 531.6 287.5 533.2 287.5 535.1 281.8 533.5 281.8 532.4 285.2"/>
        <polygon class="st30" points="539.3 285.3 541.8 285.3 541.8 283.9 539.3 283.9 539.3 283.2 542.1 283.2 542.1 281.8 537.7 281.8 537.7 287.5 542.2 287.5 542.2 286.1 539.3 286.1 539.3 285.3"/>
        <polygon class="st30" points="552.2 287.5 553.7 287.5 553.7 285.5 556.2 285.5 556.2 284.2 553.7 284.2 553.7 283.2 556.5 283.2 556.5 281.8 552.2 281.8 552.2 287.5"/>
        <rect class="st30" x="560.7" y="281.8" width="1.6" height="5.6"/>
        <polygon class="st30" points="572.2 281.8 570.4 281.8 569.3 283.4 568.2 281.8 566.4 281.8 568.4 284.6 566.3 287.5 568.1 287.5 569.3 285.8 570.5 287.5 572.3 287.5 570.2 284.5 572.2 281.8"/>
        <path class="st30" d="M585.4,281.8h-2.5v5.6h1.6v-1.5h.9c1.5,0,2.5-.8,2.5-2.1s-1-2.1-2.5-2.1M584.5,283.2h.8c.6,0,.9.2.9.7s-.3.7-.9.7h-.8v-1.5Z"/>
        <rect class="st30" x="592" y="281.8" width="1.6" height="5.6"/>
        <path class="st30" d="M600.3,281.8h-2.5v5.6h1.6v-1.5h.9c1.5,0,2.5-.8,2.5-2.1s-1-2.1-2.5-2.1M599.4,283.2h.8c.6,0,.9.2.9.7s-.3.7-.9.7h-.8v-1.5Z"/>
        <polygon class="st30" points="608.5 285.3 610.9 285.3 610.9 283.9 608.5 283.9 608.5 283.2 611.3 283.2 611.3 281.8 606.9 281.8 606.9 287.5 611.4 287.5 611.4 286.1 608.5 286.1 608.5 285.3"/>
        <path class="st30" d="M618.2,284c-.6-.1-1-.2-1-.5,0-.4.5-.4.8-.4.4,0,.9.1,1.4.4h.2c0,.1.5-1.2.5-1.2h-.1c-.5-.4-1.2-.6-1.9-.6-1.8,0-2.4,1-2.4,1.8,0,1.3,1.2,1.6,2.1,1.8.6.1,1,.3,1,.5s-.5.4-.8.4c-.6,0-1.2-.2-1.6-.5h-.2c0-.1-.6,1.1-.6,1.1h.1c.5.5,1.4.7,2.3.7,1.8,0,2.4-1,2.4-1.8,0-1.3-1.2-1.6-2.1-1.8"/>
        <path class="st30" d="M553,272.6c1.5,0,2.7-1.2,2.7-2.8,0-2.2-2.1-4.9-2.6-6.1,0,0,0-.1,0-.2,0,0,0,0-.1,0-.4,1-2.7,4-2.7,6.3s1.2,2.8,2.7,2.8"/>
        <path class="st30" d="M558.8,270.3c0-3.9-2.5-6.8-2.5-10.9s1.5-6.3,8-6.3,3.5.1,5.1.4v3.8c-.5-.1-1-.2-1.8-.2-1.7,0-2.7.7-2.7,2.2v.7h4.2v4.1h-4.2v10.6h-8.7s2.5-.6,2.5-4.6"/>
        <rect class="st30" x="572" y="253.8" width="8.7" height="21.2"/>
        <polygon class="st30" points="627.4 275 624 266.5 620.5 275 610.4 275 604.8 260.3 613.6 260.3 616 269.2 616.1 269.2 619.5 260.3 629.6 260.3 633.1 269.2 633.1 269.2 635.5 260.3 643.3 260.3 637.4 275 627.4 275"/>
        <path class="st30" d="M604.4,267.5c0,5.6-4.8,8.7-10.7,8.7s-10.5-3-10.5-8.4,3.9-8.7,11-8.7,10.3,3.4,10.3,8.3M590.5,267.7c0,2.6,1,4.7,3.4,4.7s3.2-1.7,3.2-4.7-1-4.7-3.2-4.7-3.4,2.3-3.4,4.7"/>
      </g>
    </g>
  </g>
</svg>